<?xml version="1.0" encoding="utf-8"?>
<!-- Generator: Adobe Illustrator 21.1.0, SVG Export Plug-In . SVG Version: 6.00 Build 0)  -->
<svg version="1.1" id="Слой_1" xmlns="http://www.w3.org/2000/svg" xmlns:xlink="http://www.w3.org/1999/xlink" x="0px" y="0px"
	 viewBox="0 0 340 90" style="enable-background:new 0 0 340 90;" xml:space="preserve">
<style type="text/css">
	.st0{fill:#0288D1;}
	.st1{fill-rule:evenodd;clip-rule:evenodd;fill:#FFFFFF;}
	.st2{fill-rule:evenodd;clip-rule:evenodd;fill:#0288D1;}
	.st3{fill:#FFFFFF;}
	.st4{fill:#005B9F;}
	.st5{display:none;fill-rule:evenodd;clip-rule:evenodd;fill:#0288D1;}
</style>
<path class="st0" d="M76.8,40.9v20.6c0,1.9-1.6,3.5-3.5,3.5h-4.9c-1.9,0-3.5-1.6-3.5-3.5V40.9C64.6,27.3,70,19.3,82.1,18H89
	c2.1,0,5.7,2,5.7,4.4v3.4c0,2.4-2.2,4-4.3,4l-4.5,0.1C79.8,30.2,76.8,33.8,76.8,40.9L76.8,40.9z M300,20.1c16.7-7,35,1.5,35,15.5
	v19.6c0,3.4,0,5.9-1.2,7.5c-1.1,1.6-2.9,2.5-5.2,2.5c-2.3,0-4.1-0.8-5.2-2.5c-1.1-1.6-1.7-4.1-1.7-7.5V39.8c0-3-2.5-10.1-10.7-10.1
	c-8.1,0-11.1,5.6-11.1,9.9v15.6c0,3.4-0.6,5.9-1.7,7.5c-1.1,1.6-2.9,2.5-5.2,2.5c-2.3,0-4.1-0.8-5.2-2.5c-1.1-1.6-1.7-4.1-1.7-7.5
	V11.4c0-3.4,0.6-5.9,1.7-7.5c1.1-1.7,2.8-2.5,5.2-2.5c2.3,0,4,0.9,5.2,2.5c1.1,1.7,1.7,4.2,1.7,7.5V20.1z M255.8,33.4l11.7-12.1
	c1.2-1.3,2.4-2.2,3.6-2.8c1.1-0.6,2.3-0.9,3.4-0.9c1.6,0,3,0.5,4.1,1.6c1.1,1.1,1.7,2.3,1.7,3.7c0,1.1-0.3,2.2-0.9,3.4
	c-0.6,1.1-1.6,2.2-2.5,3.2l-9.9,10.8l11.6,12.9c1,1.1,1.6,2.2,2,3.2c0.4,1.1,0.7,2.2,0.7,3.3c0,1.6-0.6,2.9-1.9,4
	c-1.2,1.1-2.7,1.7-4.6,1.7c-1.3,0-2.6-0.3-3.8-1.1c-1.2-0.7-2.2-1.8-3.3-3.2L256,47.8l-0.1,7.3c-0.1,3.4-0.6,5.9-1.7,7.6
	c-1.1,1.7-2.9,2.5-5.2,2.5c-2.3,0-4-0.9-5.1-2.5c-1.1-1.7-1.7-4.2-1.7-7.6V11c0-3.4,0.6-5.9,1.7-7.6c1.1-1.6,2.8-2.5,5.2-2.5
	c2.3,0,4.1,0.8,5.2,2.5c1.1,1.7,1.7,4.2,1.7,7.5V33.4z M211.5,18.1c12.4,0,22.6,9.6,23.4,21.8c0.1,0.3,0.1,0.7,0.1,1v19
	c0,2.8-1.7,5.1-3.7,5.1h-2.7c-1.9,0-3.4-1.9-3.7-4.4c-3.8,2.7-8.4,4.2-13.4,4.2c-13,0-23.5-10.5-23.5-23.4
	C188,28.6,198.5,18.1,211.5,18.1L211.5,18.1z M14.6,60.6C14,62.2,13.1,63.3,12,64c-1.1,0.7-2.4,1-4,1c-2.1,0-3.9-0.6-5.1-1.7
	c-1.3-1.2-1.9-2.7-1.9-4.6c0-0.8,0.1-1.5,0.2-2.1C1.2,56,1.4,55.4,1.6,55L22.1,7.6c0.8-1.9,1.8-3.3,3.1-4.3c1.3-1,2.9-1.5,5-1.5
	s3.7,0.5,5,1.5c1.3,1.1,2.4,2.5,3.2,4.3L58.7,55c0.4,0.9,0.7,1.8,0.7,2.9c0,2.1-0.7,3.8-2.2,5.1c-1.4,1.3-3.2,1.9-5.4,1.9
	c-1.7,0-3.1-0.4-4.1-1.1c-1-0.7-1.8-1.8-2.4-3.2L42,52.2H17.8L14.6,60.6z M147.1,59.8c-0.8-0.8-1.4-1.6-1.7-2.4
	c-0.3-0.8-0.4-1.6-0.4-2.3c0-0.7,0.1-1.4,0.4-2.1c0.3-0.7,0.7-1.3,1.1-1.9c0.5-0.5,1.1-1,1.7-1.4c0.7-0.4,1.3-0.6,2.1-0.6
	c1,0,1.9,0.2,2.7,0.6c0.8,0.4,1.4,0.7,1.9,1c2.5,1.6,5,2.4,7.5,2.4c1.5,0,2.7-0.1,3.6-0.5c0.9-0.3,1.3-1,1.3-2c0-1-0.5-1.8-1.6-2.5
	c-1.1-0.7-2.4-1.3-4-1.8c-1.6-0.5-3.4-1.2-5.3-1.8c-1.9-0.7-3.7-1.6-5.3-2.7c-1.6-1.1-3-2.5-4-4.1c-1.1-1.7-1.6-3.8-1.6-6.3
	c0-2,0.4-3.9,1.3-5.6c0.9-1.7,2.1-3.2,3.7-4.4c1.6-1.2,3.4-2.2,5.5-2.9c2.1-0.7,4.5-1.1,7.1-1.1c3.7,0,6.7,0.5,9,1.3
	c2.3,0.9,4.1,2,5.5,3.4c0.8,0.8,1.4,1.6,1.7,2.5c0.3,0.9,0.5,1.7,0.5,2.4c0,0.7-0.1,1.3-0.3,2.1c-0.3,0.7-0.6,1.3-1,1.9
	c-0.5,0.6-1,1-1.6,1.4c-0.6,0.4-1.3,0.6-2.2,0.6c-0.7,0-1.4-0.2-2.2-0.5c-0.8-0.3-1.5-0.8-2.3-1.2c-0.7-0.5-1.6-1-2.7-1.4
	c-1.1-0.5-2.5-0.7-4.1-0.7c-1.2,0-2.2,0.2-3,0.6c-0.7,0.4-1.1,0.9-1.1,1.7c0,0.8,0.5,1.5,1.6,2.1c1.1,0.6,2.4,1.1,3.9,1.6
	c1.5,0.5,3.2,1.1,4.9,1.8c0.2,0.1,0.8,0.3,1.8,0.7c1.1,0.4,2.4,1.1,4,2.2c1.6,1.1,3,2.4,4.1,4c1.1,1.6,1.6,3.6,1.6,6
	c0,2.2-0.5,4.2-1.3,6c-0.9,1.8-2.1,3.4-3.8,4.8c-1.6,1.3-3.6,2.4-5.9,3.2c-2.3,0.8-4.8,1.1-7.5,1.1c-3.7,0-6.9-0.5-9.4-1.4
	C150.7,62.5,148.7,61.3,147.1,59.8L147.1,59.8z M122.4,45.6c0,2.1,0.4,3.6,1.3,4.5c0.8,0.9,2,1.4,3.5,1.4c1.3,0,2.4-0.1,3-0.4
	c0.7-0.3,1.5-0.5,2.4-0.5c0.9,0,1.6,0.2,2.2,0.5c0.6,0.4,1.1,0.8,1.5,1.4c0.4,0.5,0.7,1.1,0.9,1.8c0.2,0.7,0.3,1.3,0.3,1.9
	c0,3-1,5.1-3,6.4c-1.5,0.9-3,1.5-4.5,1.9c-1.5,0.3-3.5,0.5-5.7,0.5c-3.2,0-5.9-0.5-8-1.6c-2.1-1.1-3.8-2.5-5.1-4.2
	c-1.3-1.7-2.1-3.7-2.7-5.9c-0.5-2.2-0.8-4.4-0.8-6.7V27.1h-1.7c-1.9,0-3.4-0.6-4.7-1.7c-1.3-1.2-1.9-2.7-1.9-4.7
	c0-1.9,0.6-3.5,1.9-4.7c1.3-1.2,2.8-1.8,4.7-1.8h1.7V8.2c0-2,0.7-3.7,2.1-5.1c1.4-1.4,3.1-2.1,5.3-2.1s3.9,0.7,5.3,2.1
	c1.4,1.4,2.1,3.1,2.1,5.1v5.9h7.1c1.9,0,3.5,0.6,4.7,1.7c1.3,1.1,1.9,2.7,1.9,4.7c0,2-0.6,3.6-1.9,4.7c-1.3,1.1-2.8,1.7-4.7,1.7
	h-7.1V45.6z M22.4,40.5h15l-7.5-19.2L22.4,40.5z"/>
<polygon class="st1" points="209.8,26.9 213.1,26.9 213.1,30.2 217.6,30.2 217.6,35.2 222.8,35.2 222.8,39.9 226.1,39.9 226.1,43.1 
	222.8,43.1 222.8,47.7 217.6,47.7 217.6,52.7 213.1,52.7 213.1,56.1 209.8,56.1 209.8,52.7 205,52.7 205,47.7 200.2,47.7 
	200.2,43.1 196.7,43.1 196.7,39.9 200.2,39.9 200.2,35.2 205,35.2 205,30.2 209.8,30.2 "/>
<polygon class="st2" points="209.8,35 213,35 213,39.9 218,39.9 218,43.1 213,43.1 213,48 209.8,48 209.8,43.1 204.9,43.1 
	204.9,39.9 209.8,39.9 "/>
<path class="st3" d="M96.9,83.7l-0.3-1.1c-0.2-0.9,0.4-2.1,2-3.5c0.1-0.3,0.3-0.6,0.6-1l1.2-1.3l2.7-2.7l1.1-0.9
	c0.2-0.2,0.5-0.4,1-0.7c0.3-0.2,0.8-0.3,1.4-0.3c0.3,0.1,0.6,0.3,1,0.8c0.2,0.9-0.2,1.5-1.1,2c-0.1,0.3-0.6,0.9-1.4,1.8
	c-0.1,0.1-0.4,0.5-1,1.1c-0.1,0.1-0.3,0.3-0.4,0.3l-0.4,0.8l-0.4,0.4l-0.3,0.2c-0.1,0.4-0.5,0.9-1,1.5l-0.8,1l-0.1,0.5l-0.1,0.3
	l-0.1,0.2c0.5,0,0.9-0.2,1.2-0.5l1.3-1.4c0.3-0.3,0.7-0.7,1.3-1.3c0.1-0.3,0.3-0.6,0.5-0.9l0.5-0.6c0.5-0.4,1.1-0.6,1.8-0.6
	c0.2,0,0.3,0.1,0.5,0.3l0.4,0.7l0.3,0.7v1.2c0.1,0.5,0.3,0.9,0.5,1.2c0.3,0.2,0.7,0.4,1.1,0.5c0.6-0.1,1.1-0.5,1.7-1.1l0.1,0.2
	l0.1,0.5l0.1,0.6c0,0.3,0,0.4-0.1,0.5c0.1,0.4,0,0.8-0.2,1.1l-0.6,0.7l-0.8,0.5c-0.2,0.1-0.5,0.2-1,0.3l-0.2-0.1l-0.3-0.1l-0.6,0.1
	c-0.4,0-0.9-0.2-1.5-0.7c-0.4-0.4-0.7-0.8-0.9-1.3l-0.2-0.8l-0.2-0.6l-0.2-0.3l-0.6,0.4l-0.7,0.8l-0.2,0.2l-0.3,0.1
	c-0.5,0.9-1,1.5-1.5,1.7c-0.1,0.4-0.4,0.8-1,1.2c-0.6,0.4-1.1,0.7-1.5,0.7l-0.6,0.2c-0.9,0-1.7-0.6-2.1-1.9l0-0.3
	c0-0.2,0-0.4,0.1-0.6l0.1-0.5c0,0,0,0,0-0.1C97.2,83.9,97.1,83.8,96.9,83.7L96.9,83.7z M131.6,74.1c0.1,0.3,0.1,0.5,0.1,0.7
	l-0.1,1.2l-0.1,2.2v0.5l0.2,1l0,1.1l0.1,1l0.6-0.5l1.1-1.1l0.7-1c0.2-0.2,0.5-0.5,0.9-1c0.3-0.2,0.8-0.4,1.4-0.4
	c0.5,0,0.9,0.1,1.2,0.2l0.6,0.8l0.7,0.9l0.8,1.3c0.3,0.6,0.7,1,1,1.1l0.3,0.2l0.2,0.1c0.1,0,0.2-0.1,0.3-0.2
	c0.2-0.3,0.6-0.6,1.1-1.1c0.3,1.4,0.4,2.1,0.6,2.3c-0.9,1.6-1.9,2.5-3,2.5c-0.5-0.1-0.9-0.2-1.1-0.3c-0.3-0.3-0.6-0.6-0.9-1
	l-0.9-1.2c-0.2-0.3-0.5-0.6-0.9-0.8c-0.3-0.5-0.6-0.8-1-0.8c-0.1,0-0.5,0.3-1.2,1l-1.5,1.5c0,0.4-0.2,0.8-0.6,1.2l-1.1,1.5l-0.5,0.5
	c-0.1,0-0.3,0.1-0.6,0.2c-0.3,0-0.6-0.3-0.9-1.1l-0.3-1.9l-0.2-1.4l-0.1-0.5l-0.2,0.2l-0.2,0.4l-0.3,0.3l-0.3,0.3l-0.2,0.1l-0.2-0.5
	l-0.2-0.8c-0.1-0.5,0-1,0.4-1.5c0.4-0.6,0.6-1.1,0.7-1.4l0.1-2.2l0.1-1.9l0.1-1.4c0.1-0.3,0.1-0.7,0.1-1l0-0.8l0.3-1.4l0.1-1.5
	c0-0.8,0.1-1.3,0.2-1.5l0.8-5.8c0.1-0.4,0.3-0.7,0.7-1.1l0.4,0.1l0.2,0.1c0.2,0,0.5,0.1,0.7,0.3c0.3,0.1,0.4,0.3,0.5,0.6l0.3,0.7
	l0.3,0.6l0.4,1.1l0.1,1c0,0.3,0,0.6,0,0.7l-0.2,1l-0.5,2.4c-0.1,0.2-0.3,0.9-0.6,2.2C131.9,72.3,131.8,73,131.6,74.1L131.6,74.1z
	 M144.5,69.8c-0.1-0.6,0-1.1,0.3-1.7c0.3-0.5,0.7-0.9,1.2-1.1c0-0.3,0.2-0.5,0.5-0.7c0.5-0.3,1.1-0.4,1.6-0.5
	c0.3,0.1,0.5,0.3,0.7,0.5c0.1,1.4,0.1,2.2-0.1,2.5c0,0.2,0,0.4-0.1,0.7c0,0.1-0.1,0.3-0.3,0.6c-0.3,0.3-0.6,0.6-0.9,0.8l-0.6,0.4
	c-0.4,0-0.6,0-0.7,0.1c-0.5,0-0.9-0.1-1.1-0.4l0.1-0.1C144.7,70.4,144.6,70,144.5,69.8L144.5,69.8z M142.5,83.2l-0.2-0.9l-0.1-0.7
	l0.7-0.7c0.2-0.3,0.5-0.6,0.8-0.9c0-0.1,0.2-0.5,0.7-1.1c0.4-0.5,0.7-0.9,0.9-1.1c0.1-0.4,0.3-0.7,0.7-0.9c1,0,1.9,0.4,2.5,1.1
	l0.5,1.7c0.1,0.6,0.2,1,0.3,1.2l0.5,1.2c0.3,0.5,0.8,0.8,1.3,0.9l0.5-0.1l0.8-0.4c0.1-0.3,0.2-0.5,0.4-0.7l0.4-0.3l0.3-0.2l0.2,1.3
	l0.1,1.1c-0.4,1.1-1.6,2-3.7,2.6l-0.8-0.2l-0.8-0.4c-0.1-0.1-0.3-0.2-0.6-0.5c-0.2-0.3-0.5-0.6-0.7-1.1l-0.5-0.8l-0.8-1
	c-0.3-0.5-0.5-0.7-0.9-0.8c-0.3,0-0.5,0.2-0.9,0.6l-0.8,1.1c-0.1,0-0.3,0.1-0.5,0.4l-0.3,0.4L142.5,83.2z M158.2,87.3
	c-0.5,0.3-0.9,0.5-1.2,0.5c-1.1,0-1.8-0.5-2.2-1.4l-0.1-0.6c0-0.2,0-0.4,0-0.8l0.1-0.9l0.2-0.7l-0.3-0.1l-0.2,0.1l-0.3,0.3L154,84
	l-0.1-0.1l-0.1-0.1v-0.7l0.1-0.4l-0.1-0.2l-0.2-0.4c-0.1-0.6,0.5-1.4,1.8-2.3l0.9-1.3l1-1.3c0.2-0.3,0.5-0.5,0.9-0.7l0.3-0.6
	l0.4-0.6l1.9-1.9l0.5-0.4l0.4-0.4l0.7-0.2c0.1-0.1,0.1-0.3,0.3-0.7c0.1-0.5,0.2-1.1,0.3-1.8l0.3-2.5l1.2-4.2
	c0.1-0.4,0.2-0.7,0.3-0.8c0.1-0.2,0.2-0.4,0.5-0.6c0.3-0.4,0.6-0.7,1-1h0.3c0.5,0,0.9,0.5,1.1,1.6c0.2,1,0.1,1.9-0.1,2.6
	c0.1,0.4,0.1,0.8,0,1.1l-0.3,1.2l-0.1,0.9c0.1,0.8-0.1,1.7-0.6,2.8c0,0.7-0.1,1.2-0.3,1.6c0.1,0.3,0,0.6-0.1,0.9l-0.5,1.3
	c-0.2,0.6-0.2,1.5,0,2.7c0.5,3,1.7,4.7,3.5,4.9l2.2-1l0.2,0.1l0.1,0.2l0,0.3l0,0.4l0.2,0.6l0.2,0.7c-0.5,0.8-1.5,1.3-2.9,1.6
	c-0.4,0.1-0.8,0.1-1.2,0.1c-2.1-0.5-3.3-1.5-3.9-3.1l-0.5-0.8l-0.2-0.6l-0.1-0.3c-0.3,0-0.5,0.2-0.8,0.6l-0.5,1l-0.2,0.6l-2.4,3.5
	l-0.5,0.5C158.9,86.8,158.6,87,158.2,87.3L158.2,87.3z M161.5,79.6l1.3-2.9l-0.2-1.4l-0.8,0.8l-0.5,0.8l-0.3,0.5
	c-0.3,0.3-0.5,0.7-0.7,1.2l-1,1.9c-0.7,1.4-1,2.5-0.9,3.2c0.1,0,0.3-0.1,0.5-0.3l0.6-0.7l0.4-0.5L161.5,79.6z M175.8,87.3
	c-0.5,0.3-0.9,0.5-1.2,0.5c-1.1,0-1.9-0.5-2.2-1.4l-0.1-0.6c0-0.2,0-0.4,0-0.8l0.1-0.9l0.3-0.7l-0.3-0.1l-0.3,0.1l-0.3,0.3l-0.2,0.3
	l-0.2-0.1l-0.1-0.1v-0.7l0.1-0.4l-0.1-0.2l-0.2-0.4c-0.1-0.6,0.5-1.4,1.9-2.3l0.9-1.3l1-1.3c0.2-0.3,0.5-0.5,0.9-0.7l0.3-0.6
	l0.4-0.6l1.9-1.9l0.5-0.4l0.4-0.4l0.7-0.2c0.1-0.1,0.1-0.3,0.2-0.7c0.1-0.5,0.2-1.1,0.3-1.8l0.3-2.5l1.2-4.2
	c0.1-0.4,0.2-0.7,0.3-0.8c0.1-0.2,0.2-0.4,0.5-0.6c0.3-0.4,0.6-0.7,1-1h0.3c0.5,0,0.9,0.5,1.1,1.6c0.2,1,0.2,1.9-0.1,2.6
	c0.1,0.4,0.1,0.8,0,1.1l-0.3,1.2l-0.1,0.9c0.1,0.8-0.1,1.7-0.6,2.8c0,0.7-0.1,1.2-0.3,1.6c0.1,0.3,0,0.6-0.1,0.9l-0.5,1.3
	c-0.2,0.6-0.2,1.5,0,2.7c0.5,3,1.7,4.7,3.6,4.9l2.2-1l0.2,0.1l0.1,0.2l0,0.3l0,0.4l0.2,0.6l0.2,0.7c-0.5,0.8-1.5,1.3-2.9,1.6
	c-0.4,0.1-0.8,0.1-1.2,0.1c-2.1-0.5-3.3-1.5-3.9-3.1l-0.5-0.8l-0.2-0.6l-0.1-0.3c-0.3,0-0.5,0.2-0.7,0.6l-0.5,1l-0.2,0.6L177,86
	l-0.5,0.5C176.4,86.8,176.2,87,175.8,87.3L175.8,87.3z M179,79.6l1.3-2.9l-0.2-1.4l-0.8,0.8l-0.5,0.8l-0.3,0.5
	c-0.3,0.3-0.5,0.7-0.7,1.2l-1,1.9c-0.7,1.4-1,2.5-0.9,3.2c0.1,0,0.3-0.1,0.4-0.3l0.6-0.7l0.4-0.5L179,79.6z M190.9,85.9
	c0-0.1-0.1-0.2-0.2-0.3c0-0.1-0.1-0.2-0.4-0.4c-0.1-0.2-0.4-0.6-0.7-1.1l-0.5-1.2l-0.3-1.4v-0.7l0.1-0.9l0.2-1l0.3-1l0.4-1.1
	c0.3-0.7,0.5-1.1,0.7-1.1c0.3-0.5,1-1.1,2-1.9c0.1-0.3,0.6-0.6,1.6-0.7c0.7,0,1.3,0.2,1.8,0.7c0.3,0.1,0.5,0.5,0.6,1.3
	c0.2,0.8,0.1,1.3-0.1,1.5l-0.1,0.5l-0.3,0.7c-0.2,0.4-0.6,1-1.3,1.8c-0.4,0.5-0.8,0.9-1.3,1.1l-0.5,0.7l-0.5,0.5l-0.1,0.5
	c0.2,0.5,0.5,1,0.9,1.3c0.1,0.1,0.7,0.3,1.7,0.6c1.5,0,2.9-0.6,3.9-1.7c0.2,0,0.4-0.2,0.6-0.5c0.2-0.3,0.4-0.5,0.6-0.6
	c0.2,0,0.3,0.2,0.3,0.5l0.1,0.3c0.1,0.9,0.2,1.5,0,1.8l-1.8,1.3l-1.9,1.3l-0.8,0.3l-1,0.1l-1,0.2l-0.7-0.1
	C192.6,86.9,191.8,86.5,190.9,85.9L190.9,85.9z M193.7,76.5c-0.4,0-0.8,0.3-1.2,0.9c-0.3,0.5-0.5,1.1-0.6,1.7l0.3,0.1
	c0.3,0,0.5-0.1,0.6-0.3l0.4-0.4c0.5-0.2,0.8-0.7,0.8-1.6L193.7,76.5z M205.9,88.1c0,0.3-0.5,0.5-1.4,0.5c-0.5,0-0.7,0-0.8-0.1
	l-0.2-0.4v-0.5l-0.2-0.4l0-1.2l0.1-1.1l0-0.7l0.2-0.9v-0.9l0-0.5c0.1-0.2,0.1-0.6,0.1-1c0-0.1-0.1-0.3-0.3-0.3
	c-0.3,0-0.6,0.2-0.8,0.5l-0.9,1.3l-0.8,1.2l-0.4,0.3l-0.2,0.2l-0.1-0.2l-0.2-1l-0.1-1.1c-0.1-0.4,0-0.7,0.3-0.9
	c0.1-0.3,0.2-0.6,0.4-0.9l0.9-1.3l1.9-2.5c0.7-0.9,1.4-1.3,2.2-1.4c0.9,0,1.4,0.7,1.7,2c0,0.2,0.1,0.4,0.1,0.7c0,0.2,0,0.5-0.1,1.1
	l-0.1,0.9l-0.3,1.9l-0.1,1.3v0.7l0.3-0.1l0.2-0.5l0.4-0.6c0.3-0.5,0.8-1.1,1.5-1.7l0.7-1l0.9-0.9c0.3-0.3,0.7-0.4,1.4-0.4
	c0.4,0,0.8,0.1,1.2,0.2l0.7,0.8l0.7,0.9l0.8,1.3c0.3,0.6,0.7,1,0.9,1.1l0.3,0.2l0.2,0.1c0.3-0.3,0.8-0.8,1.5-1.4
	c0.2,1.3,0.4,2,0.5,2.3c-0.9,1.6-1.9,2.5-2.9,2.5c-0.2-0.1-0.6-0.2-1.1-0.3c-0.5-0.4-0.8-0.7-1-1l-0.9-1.2c-0.3-0.4-0.6-0.7-0.9-0.8
	c-0.3-0.5-0.6-0.8-0.9-0.8c-0.1,0-0.5,0.3-1.2,1l-1.5,1.5c-0.1,0.4-0.2,0.8-0.6,1.2l-1.1,1.5L205.9,88.1z M237.9,86.4
	c-0.4-3.5-0.4-5.8-0.1-7l-0.1-0.3l-0.1-0.1l-0.5,0.8l-0.6,0.9l-1.3,1.7l-1.4,1.7l-0.2-0.6l-0.3-0.9c-0.1-0.7,0-1.2,0.3-1.5
	c0.1-0.1,0.2-0.3,0.4-0.5l0.6-0.8l1.5-2.9l1.2-2.5c0.1-0.3,0.3-0.7,0.4-1.1c0.1-0.2,0.1-0.5,0.1-0.8h-0.5l-1.8,0l-1.8-0.1l-0.1,0.1
	h-0.2c-1,0-1.5-0.3-1.7-0.7c-0.2-1.1-0.3-1.7-0.2-2c0.1-0.5,0.7-0.7,1.5-0.7l3.5,0.1l0.1,0l0.2,0.1l0.7-0.2c0.1,0,0.3,0,0.3,0.1
	l0.1,0.1c0.5-0.1,0.9-0.4,1-0.8l0.6-1.7c0.2-0.7,0.5-1.1,0.9-1.3l0.4,0.1l0.2,0.1c0.5,0.2,0.8,0.5,0.8,1l0.1,0.7l-0.2,0.8l-0.1,0.6
	c0.1,0.2,0.2,0.4,0.4,0.6c0.2,0,0.3,0.2,0.3,0.4l0.1,1.3l0.2,1.2c0,0.1,0,0.3-0.2,0.4l-0.7,0.1c-0.2,0-0.4,0.1-0.6,0.1
	c-0.1,0.1-0.1,0.3-0.2,0.8l-0.4,3.9l-0.2,3.6l0,1.5l0.1,1.3c0.1,0.2,0.1,0.3,0.2,0.5l0.1,0.2c0.4,0,0.7-0.1,1-0.3l0.9-1l0.7-0.9
	l0.7-0.7l0.5-0.4c0.1,0,0.2,0.2,0.4,0.6c0.1,0.6,0.1,1.2,0,1.6c0,0.2-0.3,0.6-0.8,1.3l-0.5,0.7l-0.5,0.6l-0.5,0.3
	c-1.4,1.7-2.3,2.6-2.8,2.7c-1.2-0.4-1.9-1.1-2.2-2L237.9,86.4z M245,83.6l-0.1-0.5l-0.3-1.4l0.3-0.5l0.4-0.7c0-0.1,0.1-0.3,0.1-0.6
	l0.8-1.2l0.3-0.7c0.1-0.3,0.2-0.6,0.4-0.8l-0.1-0.3l-0.1-0.3l-0.1-0.3l-0.1-0.3l0.5-0.5l0.7-0.5c0.3-0.5,0.8-0.7,1.3-0.7
	c0.7,0,1.6,0.4,2.6,1.2c0.2,0.2,0.3,0.3,0.5,0.4l0.6,0.8c0.7,0.6,1.1,1.6,1.4,3.2c0.1,0.3,0,1-0.2,2.2l-0.3,1.9l0.1,0.2l0.1,0.2
	c0.3,0,0.6-0.2,1-0.5l1.3-1.1l1-1l0.1-0.3l0.1-0.1c0.1,0,0.2,0.1,0.3,0.4l0.1,0.2c0.2,0.1,0.3,0.5,0.5,1.1l-0.3,0.5
	c-0.1,0.2-0.2,0.5-0.2,0.7c-0.1,0-0.5,0.3-1.3,1.1l-1.3,1.2l-1.1,0.6l-1,0.7l-0.6,0.2c-0.5,0-0.8-0.1-1.1-0.2
	c-0.1,0-0.3-0.3-0.7-0.8l0-1.1l0.5-3.6l-0.1-1.7c-0.2-1.3-0.8-2.1-1.7-2.3c-0.3,0.1-0.7,0.3-1,0.7l-1.5,2.4l-0.4,0.4l-0.7,0.9
	l-0.4,0.6l-0.2,0.2l-0.1,0.1L245,83.6z M259.5,85.9c0-0.1-0.1-0.2-0.1-0.3c0-0.1-0.1-0.2-0.4-0.4c-0.2-0.2-0.4-0.6-0.7-1.1l-0.5-1.2
	l-0.3-1.4v-0.7l0.2-0.9l0.2-1l0.3-1l0.5-1.1c0.3-0.7,0.5-1.1,0.7-1.1c0.3-0.5,1-1.1,2-1.9c0.1-0.3,0.6-0.6,1.6-0.7
	c0.7,0,1.3,0.2,1.8,0.7c0.3,0.1,0.5,0.5,0.6,1.3c0.1,0.8,0.1,1.3-0.1,1.5l-0.1,0.5l-0.3,0.7c-0.2,0.4-0.6,1-1.3,1.8
	c-0.4,0.5-0.9,0.9-1.3,1.1l-0.5,0.7l-0.6,0.5l-0.1,0.5c0.2,0.5,0.5,1,0.9,1.3c0.2,0.1,0.7,0.3,1.7,0.6c1.5,0,2.8-0.6,3.9-1.7
	c0.2,0,0.4-0.2,0.6-0.5c0.2-0.3,0.4-0.5,0.6-0.6c0.2,0,0.3,0.2,0.3,0.5l0.1,0.3c0.2,0.9,0.2,1.5,0,1.8l-1.8,1.3l-1.9,1.3l-0.8,0.3
	l-1,0.1l-1,0.2l-0.7-0.1C261.2,86.9,260.4,86.5,259.5,85.9L259.5,85.9z M262.4,76.5c-0.4,0-0.8,0.3-1.2,0.9
	c-0.3,0.5-0.5,1.1-0.6,1.7l0.3,0.1c0.3,0,0.5-0.1,0.6-0.3l0.4-0.4c0.5-0.2,0.8-0.7,0.8-1.6L262.4,76.5z M269,83.7l-0.3-1.1
	c-0.3-0.9,0.4-2.1,2-3.5c0-0.3,0.3-0.6,0.6-1l1.2-1.3l2.7-2.7l1.1-0.9c0.2-0.2,0.5-0.4,1-0.7c0.3-0.2,0.8-0.3,1.4-0.3
	c0.3,0.1,0.6,0.3,1,0.8c0.2,0.9-0.2,1.5-1.1,2c-0.1,0.3-0.6,0.9-1.4,1.8c-0.1,0.1-0.4,0.5-1,1.1c-0.1,0.1-0.3,0.3-0.4,0.3l-0.4,0.8
	l-0.4,0.4l-0.3,0.2c-0.1,0.4-0.4,0.9-1,1.5l-0.8,1l-0.1,0.5l-0.1,0.3l-0.1,0.2c0.5,0,0.9-0.2,1.2-0.5l1.2-1.4
	c0.3-0.3,0.8-0.7,1.3-1.3c0.1-0.3,0.3-0.6,0.6-0.9l0.5-0.6c0.5-0.4,1.1-0.6,1.8-0.6c0.2,0,0.4,0.1,0.5,0.3l0.4,0.7l0.3,0.7v1.2
	c0.1,0.5,0.3,0.9,0.6,1.2c0.3,0.2,0.6,0.4,1.1,0.5c0.6-0.1,1.1-0.5,1.7-1.1l0.2,0.2l0.1,0.5l0.1,0.6c0,0.3,0,0.4-0.1,0.5
	c0.1,0.4,0,0.8-0.2,1.1l-0.6,0.7l-0.8,0.5c-0.2,0.1-0.5,0.2-1,0.3l-0.2-0.1l-0.3-0.1l-0.6,0.1c-0.4,0-0.9-0.2-1.5-0.7
	c-0.4-0.4-0.7-0.8-0.9-1.3l-0.2-0.8l-0.3-0.6l-0.2-0.3l-0.6,0.4l-0.6,0.8l-0.2,0.2l-0.3,0.1c-0.5,0.9-1,1.5-1.5,1.7
	c-0.1,0.4-0.4,0.8-1,1.2c-0.6,0.4-1.1,0.7-1.5,0.7l-0.6,0.2c-0.9,0-1.6-0.6-2.1-1.9l0-0.3c0-0.2,0-0.4,0.1-0.6l0.1-0.5
	c0,0,0,0,0-0.1C269.3,83.9,269.2,83.8,269,83.7L269,83.7z M284.3,83.9v-0.5l-0.2-0.7l-0.2-0.7c-0.1-0.3,0-0.6,0.2-0.9l0.9-0.9
	l0.7-0.8l1.2-1.7c0.1,0,0.1,0,0.2-0.1l0.3-0.3l0.7-0.9l0.5-0.8l0.6-0.7l0.7-0.7c0.1-0.1,0.4-0.2,0.8-0.3c1.3,0,2.1,0.7,2.3,1.9
	c0.1,0.7,0.2,1.1,0.1,1.3l0.1,0.4c0.1,0.7,0.1,1.3,0.1,1.8l-0.3,2.5c-0.2,1.1-0.2,2-0.2,2.7l0.2,0.2c0.1,0,0.5-0.3,1.1-0.9l0.9-0.9
	c0.5-1,0.9-1.6,1.2-1.7l0.2,0.2v0.3l0,0.3l0.5,1.3c0,0.2-0.1,0.4-0.4,0.7l-0.4,0.7l-0.5,0.8l-0.8,0.7l-1.8,1.3
	c-0.5,0.4-0.9,0.9-1.1,1.5l-0.8,0.3l-0.2,0.2l-0.3,0.2c-0.3,0-0.5-0.1-0.7-0.2l-0.3-0.6c-0.5-0.8-1-1.9-1.3-3.4l-0.1-0.3l-0.1-0.3
	c-0.1-0.8,0.3-1.3,1.2-1.5c0.2,0.1,0.4,0.2,0.5,0.3l0.3,0.4l0.1-0.1l0.1-0.5c0-0.3,0.1-0.6,0.1-1l-0.3-2.7l-0.1-0.5
	c0-0.1-0.1-0.2-0.3-0.4l-0.3-0.1l-0.3,0.2l-0.5,0.5l-0.3,0.4c-1.2,1.1-2.1,1.9-2.5,2.6l-0.7,0.9L284.3,83.9z M300.2,87.1
	c-0.3-0.1-0.6-0.4-0.9-0.9l-0.3-0.7l-0.2-0.6l-0.5-1.5l-0.1-0.7l-0.1-0.4l-0.7,0.4l-0.7,0.7l-0.3,0.3l-0.2,0.3l-0.3,0.1l-0.2-0.5
	l-0.2-0.8c-0.1-0.7,0-1.1,0.2-1.4l0.7-0.7l0.7-1l1.2-2.3l1-2.1c0.5-0.5,1.1-0.8,1.8-0.8c0.3,0,0.5,0.3,0.6,0.8l0,0.5l0,0.7l-0.1,0.8
	c0,0.1-0.1,0.4-0.2,0.9l-0.3,1.5l0,1.1l0.1,1l0.1,0.9c0.1,0.9,0.3,1.5,0.7,1.8l0.3,0l0.3-0.2l0.4-0.3l0.3-0.2l0.8-1.2l0.7-1.1
	l0.6-1.3c0.1-0.2,0.3-0.5,0.5-0.9c0.3-0.8,0.9-1.3,1.6-1.3c0.9,0,1.4,0.7,1.7,2.1c0.3,1.6,0.9,2.4,1.6,2.4c0.1,0,0.4-0.1,0.7-0.2
	l0.6-0.5l0.5-0.5c0.1,0,0.3,0.4,0.4,1.3l0.1,0.5c0.1,0.6-0.3,1.2-1.1,1.8c-0.8,0.5-1.5,0.7-2.2,0.7c-0.7,0-1.2-0.1-1.5-0.4
	c-0.3-0.2-0.6-0.4-0.9-0.8l-0.6-1.2l-0.2-0.4l-0.2-0.2l-0.2,0.2l-0.3,0.4l-0.6,1l-0.7,1.1l-0.9,1.2c-0.1,0.1-0.3,0.3-0.8,0.7
	l-0.8,0.3l-0.6,0.1C301.4,87.5,300.9,87.4,300.2,87.1L300.2,87.1z M312.9,83.6l-0.1-0.5l-0.3-1.4l0.3-0.5l0.4-0.7
	c0-0.1,0.1-0.3,0.1-0.6l0.8-1.2l0.3-0.7c0.1-0.3,0.2-0.6,0.4-0.8l-0.1-0.3l-0.1-0.3l-0.1-0.3l-0.1-0.3l0.5-0.5l0.7-0.5
	c0.3-0.5,0.8-0.7,1.3-0.7c0.7,0,1.6,0.4,2.6,1.2c0.1,0.2,0.3,0.3,0.4,0.4l0.6,0.8c0.7,0.6,1.1,1.6,1.4,3.2c0,0.3,0,1-0.2,2.2
	l-0.3,1.9l0.1,0.2l0.1,0.2c0.3,0,0.6-0.2,1-0.5l1.3-1.1l1-1l0.1-0.3l0.1-0.1c0.1,0,0.2,0.1,0.3,0.4l0,0.2c0.2,0.1,0.3,0.5,0.5,1.1
	l-0.3,0.5c-0.1,0.2-0.2,0.5-0.2,0.7c-0.1,0-0.5,0.3-1.3,1.1l-1.3,1.2l-1.1,0.6l-1.1,0.7l-0.6,0.2c-0.5,0-0.8-0.1-1.1-0.2
	c-0.1,0-0.3-0.3-0.7-0.8l0-1.1l0.5-3.6l-0.2-1.7c-0.2-1.3-0.8-2.1-1.7-2.3c-0.3,0.1-0.7,0.3-1,0.7l-1.5,2.4l-0.3,0.4l-0.7,0.9
	l-0.4,0.6l-0.2,0.2l-0.1,0.1L312.9,83.6z M327.4,85.9c0-0.1-0.1-0.2-0.1-0.3c0-0.1-0.1-0.2-0.4-0.4c-0.1-0.2-0.4-0.6-0.7-1.1
	l-0.5-1.2l-0.3-1.4l0-0.7l0.1-0.9l0.2-1l0.3-1l0.5-1.1c0.3-0.7,0.5-1.1,0.7-1.1c0.3-0.5,1-1.1,2-1.9c0.1-0.3,0.6-0.6,1.6-0.7
	c0.7,0,1.3,0.2,1.8,0.7c0.3,0.1,0.5,0.5,0.6,1.3c0.1,0.8,0.1,1.3-0.1,1.5l-0.1,0.5l-0.3,0.7c-0.2,0.4-0.6,1-1.3,1.8
	c-0.4,0.5-0.8,0.9-1.3,1.1l-0.5,0.7l-0.6,0.5l-0.1,0.5c0.2,0.5,0.5,1,0.8,1.3c0.2,0.1,0.7,0.3,1.7,0.6c1.5,0,2.9-0.6,3.9-1.7
	c0.2,0,0.3-0.2,0.6-0.5c0.2-0.3,0.4-0.5,0.6-0.6c0.2,0,0.3,0.2,0.3,0.5l0.1,0.3c0.1,0.9,0.2,1.5,0,1.8l-1.8,1.3l-1.9,1.3l-0.8,0.3
	l-1,0.1l-1,0.2l-0.7-0.1C329.1,86.9,328.3,86.5,327.4,85.9L327.4,85.9z M330.3,76.5c-0.4,0-0.8,0.3-1.2,0.9
	c-0.3,0.5-0.5,1.1-0.6,1.7l0.3,0.1c0.3,0,0.5-0.1,0.6-0.3l0.4-0.4c0.5-0.2,0.8-0.7,0.8-1.6L330.3,76.5z"/>
<path class="st4" d="M97.3,84.4L97,83.2c-0.2-0.9,0.4-2.1,2-3.5c0.1-0.3,0.3-0.6,0.6-1.1l1.3-1.3l2.7-2.7l1.1-0.9
	c0.2-0.2,0.5-0.4,1-0.7c0.3-0.2,0.8-0.3,1.4-0.4c0.3,0.1,0.6,0.3,1,0.8c0.1,0.8-0.2,1.5-1.2,1.9c-0.1,0.3-0.6,0.9-1.4,1.8
	c-0.1,0.1-0.4,0.5-1,1.2c-0.1,0.1-0.2,0.3-0.4,0.3l-0.4,0.8l-0.4,0.4l-0.3,0.2c-0.1,0.4-0.5,0.9-1,1.5l-0.8,0.9l-0.1,0.5l-0.1,0.3
	l-0.1,0.2c0.5,0,0.9-0.2,1.2-0.5l1.3-1.4c0.3-0.3,0.7-0.8,1.3-1.3c0.1-0.3,0.3-0.6,0.5-0.9l0.5-0.6c0.5-0.4,1.1-0.6,1.8-0.6
	c0.2,0,0.3,0.1,0.5,0.3l0.4,0.7l0.3,0.7v1.2c0.1,0.5,0.3,0.9,0.5,1.2c0.3,0.2,0.7,0.4,1.1,0.5c0.6-0.1,1.2-0.5,1.7-1.1l0.1,0.1
	l0.1,0.5l0.2,0.6c0,0.3,0,0.4-0.1,0.5c0.1,0.4,0,0.8-0.2,1.1l-0.6,0.7L111,86c-0.2,0.1-0.5,0.2-1,0.3l-0.2-0.1l-0.3-0.1l-0.6,0.1
	c-0.4,0-0.9-0.3-1.5-0.7c-0.4-0.4-0.7-0.8-0.9-1.3l-0.2-0.8l-0.2-0.6l-0.2-0.3l-0.6,0.4l-0.6,0.8l-0.2,0.2l-0.3,0.1
	c-0.5,0.9-1,1.5-1.5,1.7c-0.1,0.4-0.4,0.8-1,1.2c-0.6,0.4-1.1,0.7-1.5,0.8L99.6,88c-0.9,0-1.7-0.6-2.1-1.9l0-0.3
	c0-0.2,0-0.4,0.1-0.6l0.1-0.5c0,0,0,0,0-0.1C97.5,84.5,97.4,84.4,97.3,84.4L97.3,84.4z M131.9,74.8c0.1,0.3,0.1,0.5,0.1,0.7
	l-0.1,1.2l-0.1,2.2v0.5l0.2,1v1.1l0.1,1l0.6-0.4l1.1-1.2l0.7-1c0.1-0.2,0.5-0.5,0.9-0.9c0.3-0.3,0.7-0.4,1.4-0.4
	c0.5,0,0.9,0.1,1.2,0.2l0.6,0.8l0.7,0.9l0.8,1.3c0.3,0.6,0.7,1,1,1.2l0.3,0.2l0.2,0.1c0.1,0,0.2-0.1,0.3-0.3
	c0.2-0.3,0.6-0.6,1.1-1.1c0.3,1.4,0.5,2.1,0.6,2.3c-1,1.6-2,2.4-3,2.5c-0.5-0.1-0.8-0.2-1.1-0.3c-0.3-0.2-0.6-0.6-0.9-1l-0.9-1.2
	c-0.2-0.3-0.5-0.6-0.9-0.8c-0.3-0.5-0.6-0.8-1-0.8c-0.1,0-0.5,0.3-1.2,1l-1.5,1.5c-0.1,0.4-0.2,0.8-0.6,1.2l-1.1,1.5l-0.5,0.5
	c-0.1,0-0.3,0.1-0.6,0.2c-0.3,0-0.6-0.3-0.9-1l-0.3-1.9l-0.2-1.5l-0.1-0.5l-0.2,0.2l-0.2,0.4l-0.3,0.3l-0.2,0.3l-0.3,0.1l-0.2-0.5
	l-0.1-0.8c-0.1-0.5,0-1,0.4-1.5c0.4-0.6,0.6-1.1,0.7-1.4l0.1-2.2l0.1-1.9l0.1-1.4c0.1-0.3,0.1-0.7,0.1-1.1v-0.8l0.3-1.4l0.1-1.5
	c0.1-0.8,0.1-1.3,0.2-1.5l0.8-5.8c0.1-0.4,0.3-0.7,0.7-1l0.4,0l0.2,0.1c0.2,0,0.5,0.1,0.8,0.3c0.2,0.1,0.4,0.3,0.5,0.5l0.3,0.7
	l0.3,0.6l0.4,1.1l0.1,1c0,0.3,0,0.6,0,0.7l-0.2,1l-0.5,2.5c-0.1,0.1-0.3,0.9-0.7,2.2C132.2,72.9,132.1,73.6,131.9,74.8L131.9,74.8z
	 M144.8,70.4c-0.1-0.6,0-1.1,0.3-1.7c0.3-0.6,0.7-0.9,1.2-1.1c0-0.3,0.2-0.5,0.5-0.7c0.5-0.3,1.1-0.5,1.6-0.5
	c0.3,0.1,0.5,0.3,0.7,0.5c0.1,1.4,0.1,2.2-0.1,2.5c0,0.2,0,0.4-0.1,0.6c0,0.1-0.1,0.3-0.3,0.6c-0.3,0.3-0.6,0.6-0.9,0.8l-0.6,0.4
	c-0.4,0-0.6,0-0.7,0.1c-0.5,0-0.9-0.1-1-0.4l0.1-0.1C145.1,71,144.9,70.7,144.8,70.4L144.8,70.4z M142.8,83.8l-0.2-0.9l-0.1-0.8
	l0.7-0.7c0.2-0.3,0.4-0.6,0.7-0.8c0-0.1,0.2-0.5,0.7-1.1c0.4-0.5,0.7-0.9,0.9-1.1c0.1-0.4,0.4-0.7,0.7-1c1,0,1.9,0.4,2.5,1.1
	l0.5,1.7c0.1,0.6,0.2,1,0.3,1.2l0.5,1.2c0.4,0.5,0.8,0.8,1.3,0.9l0.5-0.1l0.8-0.4c0.1-0.2,0.2-0.5,0.4-0.7l0.4-0.3l0.3-0.2l0.2,1.2
	l0.1,1.1c-0.4,1.1-1.6,2-3.7,2.6l-0.8-0.2l-0.8-0.4c-0.1-0.1-0.3-0.2-0.6-0.5c-0.2-0.2-0.5-0.6-0.7-1.1l-0.4-0.8l-0.8-1
	c-0.3-0.5-0.5-0.7-0.9-0.8c-0.3,0-0.5,0.2-0.9,0.6l-0.8,1.1c-0.1,0-0.3,0.1-0.5,0.4l-0.3,0.4L142.8,83.8z M158.5,87.9
	c-0.5,0.3-0.9,0.5-1.2,0.5c-1.1,0-1.9-0.5-2.2-1.4l-0.1-0.6c0-0.2,0-0.5,0-0.8l0.1-0.9l0.3-0.7l-0.3-0.1l-0.3,0.1l-0.3,0.3l-0.3,0.3
	l-0.1-0.1l-0.1-0.1v-0.7l0.1-0.4l-0.1-0.2l-0.2-0.4c-0.1-0.6,0.5-1.3,1.8-2.3l0.9-1.3l1-1.3c0.2-0.2,0.5-0.5,0.9-0.7l0.3-0.6
	l0.4-0.6l1.9-1.9l0.5-0.4l0.4-0.4l0.7-0.2c0.1-0.1,0.1-0.3,0.3-0.7c0.1-0.5,0.2-1.1,0.3-1.8l0.3-2.5l1.2-4.2
	c0.1-0.4,0.2-0.7,0.3-0.8c0.1-0.1,0.2-0.4,0.5-0.6c0.3-0.4,0.6-0.7,1-0.9h0.3c0.5,0,0.9,0.5,1.1,1.5c0.2,1,0.2,1.9-0.1,2.6
	c0.1,0.4,0.1,0.8,0,1.1l-0.3,1.2l-0.1,0.9c0.1,0.8-0.1,1.7-0.6,2.8c0,0.7-0.1,1.2-0.3,1.6c0.1,0.3,0,0.6-0.1,0.9l-0.5,1.3
	c-0.2,0.6-0.2,1.5,0,2.7c0.5,3,1.7,4.7,3.6,4.9l2.2-1l0.2,0.1l0.1,0.2l0,0.3l0,0.4l0.2,0.6l0.2,0.7c-0.5,0.8-1.5,1.3-2.9,1.6
	c-0.4,0.1-0.8,0.1-1.2,0.1c-2.1-0.4-3.3-1.5-3.9-3.1l-0.5-0.8l-0.2-0.6l-0.1-0.2c-0.3,0-0.5,0.2-0.7,0.6l-0.5,1l-0.2,0.6l-2.4,3.5
	l-0.5,0.5C159.2,87.4,158.9,87.6,158.5,87.9L158.5,87.9z M161.8,80.2l1.3-2.9l-0.2-1.4l-0.8,0.8l-0.5,0.8l-0.3,0.5
	c-0.3,0.3-0.5,0.7-0.7,1.2l-1,1.9c-0.7,1.4-1,2.5-0.9,3.2c0.1,0,0.3-0.1,0.4-0.3l0.6-0.7l0.4-0.5L161.8,80.2z M176.1,87.9
	c-0.5,0.3-0.9,0.5-1.2,0.5c-1.1,0-1.8-0.5-2.2-1.4l-0.1-0.6c-0.1-0.2-0.1-0.5,0-0.8l0.1-0.9L173,84l-0.3-0.1l-0.2,0.1l-0.3,0.3
	l-0.3,0.3l-0.1-0.1l-0.1-0.1v-0.7l0.1-0.4l-0.1-0.2l-0.1-0.4c-0.1-0.6,0.5-1.3,1.8-2.3l0.9-1.3l1-1.3c0.2-0.2,0.5-0.5,0.9-0.7
	l0.3-0.6l0.5-0.6l1.9-1.9l0.5-0.4l0.4-0.4l0.7-0.2c0.1-0.1,0.1-0.3,0.2-0.7c0.1-0.5,0.2-1.1,0.3-1.8l0.3-2.5l1.2-4.2
	c0.1-0.4,0.2-0.7,0.3-0.8c0.1-0.1,0.2-0.4,0.5-0.6c0.2-0.4,0.6-0.7,1-0.9h0.3c0.5,0,0.9,0.5,1.1,1.5c0.2,1,0.2,1.9-0.1,2.6
	c0.1,0.4,0.1,0.8,0,1.1l-0.3,1.2l-0.1,0.9c0.1,0.8-0.1,1.7-0.6,2.8c0,0.7-0.1,1.2-0.3,1.6c0.1,0.3,0,0.6-0.1,0.9l-0.5,1.3
	c-0.2,0.6-0.2,1.5,0,2.7c0.5,3,1.7,4.7,3.6,4.9l2.2-1l0.2,0.1l0.1,0.2l0,0.3l0,0.4l0.2,0.6l0.2,0.7c-0.5,0.8-1.5,1.3-2.9,1.6
	c-0.4,0.1-0.8,0.1-1.2,0.1c-2.1-0.4-3.3-1.5-3.9-3.1l-0.5-0.8l-0.2-0.6l-0.1-0.2c-0.3,0-0.5,0.2-0.8,0.6l-0.5,1l-0.2,0.6l-2.4,3.5
	l-0.5,0.5C176.7,87.4,176.5,87.6,176.1,87.9L176.1,87.9z M179.3,80.2l1.3-2.9l-0.2-1.4l-0.9,0.8l-0.5,0.8l-0.3,0.5
	c-0.3,0.3-0.5,0.7-0.7,1.2l-1,1.9c-0.7,1.4-1,2.5-0.9,3.2c0.1,0,0.3-0.1,0.5-0.3l0.6-0.7l0.4-0.5L179.3,80.2z M191.2,86.5
	c0-0.1-0.1-0.2-0.2-0.3c0-0.1-0.1-0.2-0.4-0.4c-0.1-0.2-0.4-0.5-0.7-1.1l-0.5-1.2l-0.3-1.4v-0.7l0.1-0.9l0.2-1l0.3-1l0.4-1.1
	c0.3-0.7,0.5-1.1,0.7-1.1c0.3-0.5,1-1.1,2-1.9c0.1-0.3,0.6-0.6,1.6-0.7c0.7,0,1.3,0.2,1.8,0.7c0.3,0.1,0.5,0.5,0.6,1.3
	c0.1,0.8,0.1,1.3-0.1,1.5l-0.1,0.5l-0.3,0.7c-0.2,0.3-0.6,0.9-1.3,1.8c-0.4,0.5-0.9,0.9-1.3,1.1l-0.5,0.7l-0.6,0.5l-0.1,0.5
	c0.2,0.6,0.5,1,0.9,1.3c0.2,0.1,0.7,0.3,1.7,0.6c1.5,0,2.8-0.5,3.9-1.7c0.2,0,0.4-0.1,0.6-0.5c0.2-0.3,0.4-0.5,0.6-0.6
	c0.2,0,0.3,0.1,0.3,0.5l0.1,0.3c0.2,0.9,0.2,1.5,0,1.8l-1.8,1.3l-1.9,1.4l-0.8,0.3l-1,0.1l-1,0.2l-0.7-0.1
	C192.9,87.6,192.1,87.2,191.2,86.5L191.2,86.5z M194.1,77.1c-0.4,0-0.8,0.3-1.2,0.9c-0.3,0.5-0.5,1.1-0.6,1.7l0.3,0.1
	c0.3-0.1,0.5-0.1,0.6-0.3l0.4-0.4c0.5-0.2,0.8-0.7,0.8-1.6L194.1,77.1z M206.2,88.7c0,0.4-0.5,0.5-1.4,0.5c-0.5,0-0.8,0-0.9-0.1
	l-0.2-0.4l0-0.5l-0.2-0.4l0.1-1.3l0.1-1l0.1-0.7l0.2-0.9l0-0.9l-0.1-0.5c0.1-0.2,0.1-0.5,0.1-1c0-0.2-0.1-0.3-0.3-0.3
	c-0.3,0-0.6,0.2-0.8,0.5l-0.8,1.3l-0.9,1.1l-0.4,0.3l-0.2,0.2l-0.1-0.2l-0.2-1l-0.1-1c-0.1-0.4,0-0.7,0.3-0.9
	c0.1-0.3,0.2-0.6,0.4-0.9l0.9-1.4l1.9-2.5c0.7-0.9,1.4-1.3,2.2-1.3c0.9,0,1.5,0.7,1.7,2c0,0.2,0.1,0.4,0.1,0.7c0,0.2,0,0.5-0.1,1.1
	l-0.1,0.9l-0.3,1.9l-0.1,1.2v0.7l0.3-0.1l0.3-0.5l0.4-0.6c0.3-0.5,0.8-1,1.5-1.7l0.6-1l0.9-0.9c0.3-0.3,0.7-0.4,1.4-0.4
	c0.4,0,0.9,0.1,1.2,0.2l0.7,0.8l0.7,0.9l0.7,1.3c0.3,0.6,0.7,1,0.9,1.2l0.3,0.2l0.3,0.1c0.3-0.3,0.7-0.8,1.5-1.4
	c0.2,1.3,0.4,2,0.5,2.3c-1,1.6-2,2.4-3,2.5c-0.2-0.1-0.6-0.2-1.1-0.3c-0.5-0.4-0.8-0.7-1-1l-0.9-1.2c-0.3-0.4-0.6-0.7-0.9-0.8
	c-0.3-0.5-0.6-0.8-0.9-0.8c-0.1,0-0.5,0.3-1.2,1l-1.5,1.5c0,0.4-0.2,0.8-0.6,1.2l-1.1,1.5L206.2,88.7z M238.3,87
	c-0.4-3.5-0.4-5.8-0.1-7l0-0.3l-0.1,0l-0.5,0.8l-0.6,0.9l-1.3,1.6l-1.4,1.7l-0.2-0.6l-0.2-1c-0.1-0.7,0-1.2,0.3-1.5
	c0.1-0.1,0.2-0.2,0.4-0.5l0.6-0.8l1.5-2.9l1.2-2.5c0.1-0.3,0.3-0.7,0.4-1.1c0.1-0.2,0.1-0.4,0.1-0.7h-0.5l-1.8-0.1l-1.7-0.1
	l-0.1,0.1H234c-1,0-1.5-0.2-1.7-0.7c-0.2-1.1-0.3-1.7-0.2-1.9c0.1-0.5,0.6-0.7,1.5-0.7l3.5,0.1l0.1,0.1l0.2,0l0.7-0.2
	c0.2,0,0.3,0,0.3,0.1l0.1,0.1c0.5-0.1,0.9-0.4,1-0.8l0.6-1.7c0.3-0.7,0.5-1.1,0.9-1.3l0.4,0l0.2,0.1c0.5,0.2,0.8,0.5,0.9,1.1
	l0.1,0.7l-0.2,0.8l-0.1,0.5c0.1,0.2,0.2,0.4,0.4,0.6c0.1,0.1,0.3,0.2,0.3,0.4l0.1,1.3l0.2,1.2c0,0.1,0,0.2-0.2,0.3l-0.7,0.1
	c-0.2,0-0.4,0-0.6,0.1c-0.1,0.1-0.1,0.4-0.2,0.8l-0.4,3.9l-0.2,3.6l0,1.5l0.1,1.3c0,0.2,0.1,0.3,0.2,0.5l0.1,0.2
	c0.4,0,0.7-0.1,1-0.3l0.9-1l0.7-0.9l0.7-0.7l0.5-0.4c0.1,0,0.2,0.2,0.4,0.6c0.1,0.6,0.1,1.2,0.1,1.6c-0.1,0.2-0.3,0.7-0.9,1.3
	l-0.5,0.7l-0.6,0.6l-0.5,0.3c-1.4,1.7-2.3,2.6-2.8,2.7c-1.2-0.5-1.9-1.1-2.2-2L238.3,87z M245.3,84.2l-0.1-0.5l-0.3-1.4l0.3-0.5
	l0.4-0.7c0-0.1,0.1-0.2,0.1-0.5l0.8-1.2l0.3-0.7c0.1-0.3,0.2-0.6,0.4-0.7l-0.1-0.3l-0.1-0.3l-0.1-0.3l-0.1-0.3l0.5-0.5l0.7-0.5
	c0.3-0.5,0.8-0.7,1.3-0.7c0.7,0,1.6,0.4,2.6,1.3c0.1,0.2,0.3,0.3,0.5,0.4l0.6,0.8c0.6,0.5,1.1,1.6,1.4,3.2c0,0.3,0,1-0.2,2.2
	l-0.3,1.9l0.1,0.2l0.1,0.2c0.3,0,0.6-0.2,1-0.5l1.3-1.1l1-1l0.1-0.3l0.1-0.1c0.1,0,0.2,0.1,0.3,0.4l0,0.2c0.2,0.2,0.3,0.5,0.5,1.1
	l-0.3,0.5c-0.1,0.2-0.2,0.5-0.2,0.7c-0.1,0-0.5,0.4-1.3,1.1l-1.3,1.2l-1.1,0.6l-1.1,0.7l-0.6,0.2c-0.5,0-0.8-0.1-1.1-0.2
	c-0.1-0.1-0.3-0.3-0.7-0.8l0-1.1l0.5-3.6l-0.2-1.7c-0.2-1.4-0.8-2.1-1.7-2.3c-0.3,0.1-0.7,0.3-1,0.7l-1.5,2.4l-0.3,0.4l-0.7,0.9
	l-0.4,0.6l-0.2,0.2l-0.1,0.1L245.3,84.2z M259.8,86.5c0-0.1-0.1-0.2-0.1-0.3c0-0.1-0.1-0.2-0.4-0.4c-0.1-0.2-0.4-0.5-0.7-1.1
	l-0.5-1.2l-0.3-1.4l0-0.7l0.1-0.9l0.2-1l0.3-1l0.5-1.1c0.3-0.7,0.5-1.1,0.7-1.1c0.3-0.5,1-1.1,2-1.9c0.1-0.3,0.6-0.6,1.6-0.7
	c0.7,0,1.3,0.2,1.8,0.7c0.3,0.1,0.5,0.5,0.6,1.3c0.1,0.8,0.1,1.3-0.1,1.5l-0.1,0.5l-0.3,0.7c-0.2,0.3-0.6,0.9-1.3,1.8
	c-0.4,0.5-0.8,0.9-1.3,1.1l-0.5,0.7l-0.6,0.5l-0.1,0.5c0.2,0.6,0.5,1,0.9,1.3c0.1,0.1,0.7,0.3,1.7,0.6c1.5,0,2.9-0.5,3.9-1.7
	c0.2,0,0.3-0.1,0.6-0.5c0.2-0.3,0.4-0.5,0.6-0.6c0.2,0,0.3,0.1,0.3,0.5l0.1,0.3c0.1,0.9,0.2,1.5,0,1.8l-1.8,1.3l-1.9,1.4l-0.8,0.3
	l-1,0.1l-1,0.2l-0.7-0.1C261.5,87.6,260.7,87.2,259.8,86.5L259.8,86.5z M262.7,77.1c-0.4,0-0.8,0.3-1.2,0.9
	c-0.3,0.5-0.5,1.1-0.6,1.7l0.3,0.1c0.3-0.1,0.5-0.1,0.6-0.3l0.4-0.4c0.5-0.2,0.8-0.7,0.8-1.6L262.7,77.1z M269.3,84.4l-0.3-1.1
	c-0.2-0.9,0.4-2.1,2-3.5c0.1-0.3,0.3-0.6,0.6-1.1l1.2-1.3l2.7-2.7l1.1-0.9c0.2-0.2,0.5-0.4,1-0.7c0.3-0.2,0.8-0.3,1.4-0.4
	c0.3,0.1,0.6,0.3,1,0.8c0.2,0.8-0.2,1.5-1.1,1.9c-0.1,0.3-0.6,0.9-1.4,1.8c-0.1,0.1-0.4,0.5-1,1.2c-0.1,0.1-0.3,0.3-0.4,0.3
	l-0.4,0.8l-0.4,0.4l-0.3,0.2c-0.1,0.4-0.5,0.9-1,1.5l-0.8,0.9l-0.1,0.5l-0.1,0.3l-0.1,0.2c0.5,0,0.9-0.2,1.2-0.5l1.3-1.4
	c0.3-0.3,0.7-0.8,1.3-1.3c0.1-0.3,0.3-0.6,0.5-0.9l0.5-0.6c0.5-0.4,1.1-0.6,1.8-0.6c0.2,0,0.3,0.1,0.5,0.3l0.4,0.7l0.3,0.7v1.2
	c0.1,0.5,0.3,0.9,0.5,1.2c0.3,0.2,0.7,0.4,1.1,0.5c0.6-0.1,1.1-0.5,1.7-1.1l0.1,0.1l0.1,0.5l0.1,0.6c0,0.3,0,0.4-0.1,0.5
	c0.1,0.4,0,0.8-0.2,1.1l-0.6,0.7l-0.8,0.5c-0.2,0.1-0.5,0.2-1,0.3l-0.2-0.1l-0.3-0.1l-0.6,0.1c-0.4,0-0.9-0.3-1.5-0.7
	c-0.4-0.4-0.7-0.8-0.9-1.3l-0.2-0.8l-0.2-0.6l-0.2-0.3l-0.6,0.4l-0.7,0.8l-0.2,0.2l-0.3,0.1c-0.5,0.9-1,1.5-1.5,1.7
	c-0.1,0.4-0.4,0.8-1,1.2c-0.6,0.4-1.1,0.7-1.5,0.8l-0.6,0.2c-0.9,0-1.7-0.6-2.1-1.9l0-0.3c0-0.2,0-0.4,0.1-0.6l0.1-0.5
	c0,0,0,0,0-0.1C269.6,84.5,269.5,84.4,269.3,84.4L269.3,84.4z M284.6,84.6v-0.5l-0.2-0.8l-0.2-0.7c-0.1-0.3,0-0.5,0.2-0.9l0.9-0.9
	l0.7-0.8l1.2-1.7c0.1,0,0.1,0,0.2-0.1l0.3-0.3l0.7-0.9l0.5-0.8l0.6-0.7l0.7-0.7c0.1-0.1,0.4-0.2,0.8-0.3c1.3,0,2.1,0.6,2.3,1.9
	c0.1,0.7,0.2,1.1,0.1,1.3l0.1,0.4c0.1,0.7,0.2,1.3,0.1,1.8l-0.3,2.5c-0.2,1.1-0.2,2-0.2,2.7l0.2,0.2c0.1,0,0.5-0.3,1.1-0.9l0.9-0.9
	c0.5-1,0.9-1.6,1.2-1.7l0.2,0.2l0,0.3l-0.1,0.3l0.5,1.3c0,0.2-0.1,0.4-0.4,0.7l-0.4,0.7l-0.5,0.8l-0.8,0.7l-1.7,1.3
	c-0.5,0.4-0.9,0.9-1.1,1.5l-0.8,0.3l-0.2,0.2l-0.3,0.2c-0.3,0-0.5-0.1-0.6-0.2l-0.3-0.6c-0.5-0.7-0.9-1.9-1.3-3.4l-0.1-0.3l-0.1-0.3
	c-0.1-0.7,0.3-1.3,1.2-1.5c0.2,0.1,0.4,0.2,0.5,0.3l0.3,0.4l0.1-0.1l0.1-0.5c0-0.3,0-0.6,0.1-0.9l-0.3-2.8l-0.1-0.5
	c0-0.1-0.1-0.2-0.3-0.4l-0.3-0.1l-0.3,0.2l-0.5,0.5l-0.3,0.5c-1.2,1.1-2.1,1.9-2.5,2.6l-0.7,1L284.6,84.6z M300.6,87.8
	c-0.3-0.1-0.6-0.4-0.9-0.9l-0.3-0.8l-0.2-0.6l-0.5-1.6l-0.1-0.6l-0.1-0.4l-0.7,0.5l-0.7,0.7l-0.3,0.3l-0.3,0.3l-0.3,0.1l-0.2-0.5
	l-0.1-0.8c-0.1-0.7-0.1-1.1,0.2-1.4l0.7-0.7l0.7-1l1.2-2.3l1.1-2.1c0.5-0.5,1.1-0.8,1.8-0.8c0.3,0,0.5,0.3,0.6,0.8l0.1,0.5v0.7
	l-0.1,0.8c0,0.1-0.1,0.4-0.2,0.9l-0.3,1.5l0,1.1l0.1,1l0.1,0.9c0.1,0.9,0.3,1.5,0.7,1.8l0.3,0l0.3-0.2l0.3-0.3l0.3-0.2l0.8-1.2
	l0.7-1.2l0.6-1.3c0.1-0.2,0.2-0.5,0.5-0.9c0.3-0.8,0.9-1.2,1.6-1.3c0.8,0,1.4,0.7,1.7,2.1c0.3,1.6,0.9,2.3,1.6,2.3
	c0.2,0,0.4-0.1,0.7-0.2l0.7-0.5l0.5-0.5c0.1,0,0.3,0.4,0.5,1.3l0.1,0.5c0.1,0.7-0.3,1.3-1.1,1.8c-0.8,0.5-1.5,0.7-2.2,0.7
	c-0.7,0-1.2-0.1-1.5-0.4c-0.3-0.2-0.6-0.4-0.9-0.8l-0.6-1.1l-0.2-0.4l-0.1-0.1l-0.3,0.2l-0.3,0.4l-0.6,1l-0.7,1.2l-0.9,1.2
	c-0.1,0.1-0.3,0.3-0.8,0.7l-0.8,0.3l-0.7,0.1C301.7,88.2,301.2,88.1,300.6,87.8L300.6,87.8z M313.2,84.2l-0.1-0.5l-0.3-1.4l0.3-0.5
	l0.4-0.7c0-0.1,0.1-0.2,0.1-0.5l0.8-1.2l0.4-0.7c0.1-0.3,0.2-0.6,0.4-0.7l-0.1-0.3l-0.1-0.3l-0.1-0.3l-0.1-0.3l0.5-0.5l0.6-0.5
	c0.3-0.5,0.8-0.7,1.3-0.7c0.7,0,1.6,0.4,2.6,1.3c0.1,0.2,0.3,0.3,0.5,0.4l0.6,0.8c0.7,0.5,1.1,1.6,1.4,3.2c0.1,0.3,0,1-0.2,2.2
	l-0.3,1.9l0.1,0.2l0.1,0.2c0.3,0,0.6-0.2,1-0.5l1.3-1.1l1-1l0.2-0.3l0.1-0.1c0.1,0,0.2,0.1,0.3,0.4l0,0.2c0.2,0.2,0.3,0.5,0.5,1.1
	l-0.3,0.5c-0.1,0.2-0.2,0.5-0.2,0.7c-0.1,0-0.6,0.4-1.3,1.1l-1.4,1.2l-1.1,0.6l-1.1,0.7l-0.6,0.2c-0.5,0-0.9-0.1-1.1-0.2
	c-0.1-0.1-0.3-0.3-0.7-0.8l0.1-1.1l0.5-3.6l-0.1-1.7c-0.3-1.4-0.8-2.1-1.7-2.3c-0.3,0.1-0.7,0.3-1,0.7l-1.5,2.4l-0.3,0.4l-0.7,0.9
	l-0.4,0.6l-0.2,0.2l-0.1,0.1L313.2,84.2z M327.7,86.5c0-0.1-0.1-0.2-0.2-0.3c0-0.1-0.1-0.2-0.4-0.4c-0.1-0.2-0.4-0.5-0.7-1.1
	l-0.5-1.2l-0.3-1.4v-0.7l0.1-0.9l0.2-1l0.3-1l0.4-1.1c0.3-0.7,0.5-1.1,0.7-1.1c0.3-0.5,1-1.1,2-1.9c0.1-0.3,0.6-0.6,1.6-0.7
	c0.7,0,1.3,0.2,1.8,0.7c0.3,0.1,0.5,0.5,0.6,1.3c0.2,0.8,0.1,1.3-0.1,1.5l-0.1,0.5l-0.3,0.7c-0.2,0.3-0.6,0.9-1.3,1.8
	c-0.4,0.5-0.8,0.9-1.3,1.1l-0.5,0.7l-0.5,0.5l-0.1,0.5c0.2,0.6,0.5,1,0.9,1.3c0.1,0.1,0.7,0.3,1.7,0.6c1.5,0,2.9-0.5,3.9-1.7
	c0.2,0,0.4-0.1,0.6-0.5c0.2-0.3,0.4-0.5,0.6-0.6c0.2,0,0.3,0.1,0.3,0.5l0.1,0.3c0.1,0.9,0.2,1.5,0,1.8l-1.8,1.3l-1.9,1.4l-0.8,0.3
	l-1,0.1l-1,0.2l-0.7-0.1C329.4,87.6,328.6,87.2,327.7,86.5L327.7,86.5z M330.6,77.1c-0.4,0-0.8,0.3-1.2,0.9
	c-0.3,0.5-0.5,1.1-0.6,1.7l0.3,0.1c0.3-0.1,0.5-0.1,0.6-0.3l0.4-0.4c0.5-0.2,0.8-0.7,0.8-1.6L330.6,77.1z"/>
<rect x="59" y="144.4" class="st5" width="36" height="28.6"/>
</svg>
