<?xml version="1.0" encoding="utf-8"?>
<!-- Generator: Adobe Illustrator 19.2.1, SVG Export Plug-In . SVG Version: 6.00 Build 0)  -->
<svg version="1.1" id="Слой_1" xmlns="http://www.w3.org/2000/svg" xmlns:xlink="http://www.w3.org/1999/xlink" x="0px" y="0px"
	 viewBox="0 0 367.6 89.1" style="enable-background:new 0 0 367.6 89.1;" xml:space="preserve">
<style type="text/css">
	.st0{fill:#0288D1;}
	.st1{fill:#FFFFFF;}
	.st2{display:none;fill:#FFFFFF;}
	.st3{display:none;fill:#005B9F;}
	.st4{display:none;fill:#0288D1;}
	.st5{display:none;}
	.st6{display:inline;fill:#FFFFFF;}
	.st7{fill:#005B9F;}
</style>
<path class="st0" d="M76.8,40v20.6c0,1.9-1.6,3.5-3.5,3.5h-4.9c-1.9,0-3.5-1.6-3.5-3.5V40C64.6,26.4,70,18.4,82.1,17.1H89
	c2.1,0,5.7,2,5.7,4.4v3.4c0,2.4-2.2,4-4.3,4L85.9,29C79.8,29.3,76.8,32.9,76.8,40L76.8,40z M300,19.2c16.7-7,35,1.5,35,15.5v19.6
	c0,3.4,0,5.9-1.2,7.5c-1.1,1.6-2.9,2.5-5.2,2.5c-2.3,0-4.1-0.8-5.2-2.5c-1.1-1.6-1.7-4.1-1.7-7.5V38.9c0-3-2.5-10.1-10.7-10.1
	c-8.1,0-11.1,5.6-11.1,9.9v15.6c0,3.4-0.6,5.9-1.7,7.5s-2.9,2.5-5.2,2.5c-2.3,0-4.1-0.8-5.2-2.5c-1.1-1.6-1.7-4.1-1.7-7.5V10.5
	c0-3.4,0.6-5.9,1.7-7.5c1.1-1.7,2.8-2.5,5.2-2.5c2.3,0,4,0.9,5.2,2.5c1.1,1.7,1.7,4.2,1.7,7.5v8.7H300z M255.8,32.5l11.7-12.1
	c1.2-1.3,2.4-2.2,3.6-2.8c1.1-0.6,2.3-0.9,3.4-0.9c1.6,0,3,0.5,4.1,1.6s1.7,2.3,1.7,3.7c0,1.1-0.3,2.2-0.9,3.4
	c-0.6,1.1-1.6,2.2-2.5,3.2L267,39.4l11.6,12.9c1,1.1,1.6,2.2,2,3.2c0.4,1.1,0.7,2.2,0.7,3.3c0,1.6-0.6,2.9-1.9,4
	c-1.2,1.1-2.7,1.7-4.6,1.7c-1.3,0-2.6-0.3-3.8-1.1c-1.2-0.7-2.2-1.8-3.3-3.2L256,46.9l-0.1,7.3c-0.1,3.4-0.6,5.9-1.7,7.6
	c-1.1,1.7-2.9,2.5-5.2,2.5s-4-0.9-5.1-2.5c-1.1-1.7-1.7-4.2-1.7-7.6V10.1c0-3.4,0.6-5.9,1.7-7.6c1.1-1.6,2.8-2.5,5.2-2.5
	c2.3,0,4.1,0.8,5.2,2.5c1.1,1.7,1.7,4.2,1.7,7.5v22.5H255.8z M211.5,17.2c12.4,0,22.6,9.6,23.4,21.8c0.1,0.3,0.1,0.7,0.1,1v19
	c0,2.8-1.7,5.1-3.7,5.1h-2.7c-1.9,0-3.4-1.9-3.7-4.4c-3.8,2.7-8.4,4.2-13.4,4.2c-13,0-23.5-10.5-23.5-23.4
	C188,27.7,198.5,17.2,211.5,17.2L211.5,17.2z M14.6,59.7c-0.6,1.6-1.5,2.7-2.6,3.4c-1.1,0.7-2.4,1-4,1c-2.1,0-3.9-0.6-5.1-1.7
	C1.6,61.2,1,59.7,1,57.8c0-0.8,0.1-1.5,0.2-2.1c0-0.6,0.2-1.2,0.4-1.6L22.1,6.7c0.8-1.9,1.8-3.3,3.1-4.3c1.3-1,2.9-1.5,5-1.5
	s3.7,0.5,5,1.5c1.3,1.1,2.4,2.5,3.2,4.3l20.3,47.4c0.4,0.9,0.7,1.8,0.7,2.9c0,2.1-0.7,3.8-2.2,5.1C55.8,63.4,54,64,51.8,64
	c-1.7,0-3.1-0.4-4.1-1.1c-1-0.7-1.8-1.8-2.4-3.2L42,51.3H17.8L14.6,59.7z M147.1,58.9c-0.8-0.8-1.4-1.6-1.7-2.4
	c-0.3-0.8-0.4-1.6-0.4-2.3s0.1-1.4,0.4-2.1c0.3-0.7,0.7-1.3,1.1-1.9c0.5-0.5,1.1-1,1.7-1.4c0.7-0.4,1.3-0.6,2.1-0.6
	c1,0,1.9,0.2,2.7,0.6c0.8,0.4,1.4,0.7,1.9,1c2.5,1.6,5,2.4,7.5,2.4c1.5,0,2.7-0.1,3.6-0.5c0.9-0.3,1.3-1,1.3-2s-0.5-1.8-1.6-2.5
	s-2.4-1.3-4-1.8s-3.4-1.2-5.3-1.8c-1.9-0.7-3.7-1.6-5.3-2.7c-1.6-1.1-3-2.5-4-4.1c-1.1-1.7-1.6-3.8-1.6-6.3c0-2,0.4-3.9,1.3-5.6
	c0.9-1.7,2.1-3.2,3.7-4.4c1.6-1.2,3.4-2.2,5.5-2.9c2.1-0.7,4.5-1.1,7.1-1.1c3.7,0,6.7,0.5,9,1.3c2.3,0.9,4.1,2,5.5,3.4
	c0.8,0.8,1.4,1.6,1.7,2.5s0.5,1.7,0.5,2.4c0,0.7-0.1,1.3-0.3,2.1c-0.3,0.7-0.6,1.3-1,1.9c-0.5,0.6-1,1-1.6,1.4s-1.3,0.6-2.2,0.6
	c-0.7,0-1.4-0.2-2.2-0.5s-1.5-0.8-2.3-1.2c-0.7-0.5-1.6-1-2.7-1.4c-1.1-0.5-2.5-0.7-4.1-0.7c-1.2,0-2.2,0.2-3,0.6
	c-0.7,0.4-1.1,0.9-1.1,1.7c0,0.8,0.5,1.5,1.6,2.1s2.4,1.1,3.9,1.6s3.2,1.1,4.9,1.8c0.2,0.1,0.8,0.3,1.8,0.7c1.1,0.4,2.4,1.1,4,2.2
	c1.6,1.1,3,2.4,4.1,4s1.6,3.6,1.6,6c0,2.2-0.5,4.2-1.3,6c-0.9,1.8-2.1,3.4-3.8,4.8c-1.6,1.3-3.6,2.4-5.9,3.2
	c-2.3,0.8-4.8,1.1-7.5,1.1c-3.7,0-6.9-0.5-9.4-1.4C150.7,61.6,148.7,60.4,147.1,58.9L147.1,58.9z M122.4,44.7c0,2.1,0.4,3.6,1.3,4.5
	c0.8,0.9,2,1.4,3.5,1.4c1.3,0,2.4-0.1,3-0.4c0.7-0.3,1.5-0.5,2.4-0.5s1.6,0.2,2.2,0.5c0.6,0.4,1.1,0.8,1.5,1.4
	c0.4,0.5,0.7,1.1,0.9,1.8s0.3,1.3,0.3,1.9c0,3-1,5.1-3,6.4c-1.5,0.9-3,1.5-4.5,1.9c-1.5,0.3-3.5,0.5-5.7,0.5c-3.2,0-5.9-0.5-8-1.6
	s-3.8-2.5-5.1-4.2c-1.3-1.7-2.1-3.7-2.7-5.9c-0.5-2.2-0.8-4.4-0.8-6.7V26.2H106c-1.9,0-3.4-0.6-4.7-1.7c-1.3-1.2-1.9-2.7-1.9-4.7
	c0-1.9,0.6-3.5,1.9-4.7s2.8-1.8,4.7-1.8h1.7v-6c0-2,0.7-3.7,2.1-5.1s3.1-2.1,5.3-2.1s3.9,0.7,5.3,2.1s2.1,3.1,2.1,5.1v5.9h7.1
	c1.9,0,3.5,0.6,4.7,1.7c1.3,1.1,1.9,2.7,1.9,4.7s-0.6,3.6-1.9,4.7c-1.3,1.1-2.8,1.7-4.7,1.7h-7.1v18.7H122.4z M22.4,39.6h15
	l-7.5-19.2L22.4,39.6z"/>
<polygon class="st1" points="209.8,26 213.1,26 213.1,29.3 217.6,29.3 217.6,34.3 222.8,34.3 222.8,39 226.1,39 226.1,42.2 
	222.8,42.2 222.8,46.8 217.6,46.8 217.6,51.8 213.1,51.8 213.1,55.2 209.8,55.2 209.8,51.8 205,51.8 205,46.8 200.2,46.8 
	200.2,42.2 196.7,42.2 196.7,39 200.2,39 200.2,34.3 205,34.3 205,29.3 209.8,29.3 "/>
<polygon class="st0" points="209.8,34.1 213,34.1 213,39 218,39 218,42.2 213,42.2 213,47.1 209.8,47.1 209.8,42.2 204.9,42.2 
	204.9,39 209.8,39 "/>
<path class="st2" d="M96.9,82.8l-0.3-1.1c-0.2-0.9,0.4-2.1,2-3.5c0.1-0.3,0.3-0.6,0.6-1l1.2-1.3l2.7-2.7l1.1-0.9
	c0.2-0.2,0.5-0.4,1-0.7c0.3-0.2,0.8-0.3,1.4-0.3c0.3,0.1,0.6,0.3,1,0.8c0.2,0.9-0.2,1.5-1.1,2c-0.1,0.3-0.6,0.9-1.4,1.8
	c-0.1,0.1-0.4,0.5-1,1.1c-0.1,0.1-0.3,0.3-0.4,0.3l-0.4,0.8l-0.4,0.4l-0.3,0.2c-0.1,0.4-0.5,0.9-1,1.5l-0.8,1l-0.1,0.5l-0.1,0.3
	l-0.1,0.2c0.5,0,0.9-0.2,1.2-0.5l1.3-1.4c0.3-0.3,0.7-0.7,1.3-1.3c0.1-0.3,0.3-0.6,0.5-0.9l0.5-0.6c0.5-0.4,1.1-0.6,1.8-0.6
	c0.2,0,0.3,0.1,0.5,0.3l0.4,0.7l0.3,0.7v1.2c0.1,0.5,0.3,0.9,0.5,1.2c0.3,0.2,0.7,0.4,1.1,0.5c0.6-0.1,1.1-0.5,1.7-1.1l0.1,0.2
	l0.1,0.5l0.1,0.6c0,0.3,0,0.4-0.1,0.5c0.1,0.4,0,0.8-0.2,1.1L111,84l-0.8,0.5c-0.2,0.1-0.5,0.2-1,0.3l-0.2-0.1l-0.3-0.1l-0.6,0.1
	c-0.4,0-0.9-0.2-1.5-0.7c-0.4-0.4-0.7-0.8-0.9-1.3l-0.2-0.8l-0.2-0.6l-0.2-0.3l-0.6,0.4l-0.7,0.8l-0.2,0.2l-0.3,0.1
	c-0.5,0.9-1,1.5-1.5,1.7c-0.1,0.4-0.4,0.8-1,1.2c-0.6,0.4-1.1,0.7-1.5,0.7l-0.6,0.2c-0.9,0-1.7-0.6-2.1-1.9v-0.3
	c0-0.2,0-0.4,0.1-0.6l0.1-0.5C96.8,83,96.8,83,96.9,82.8C97.2,83,97.1,82.9,96.9,82.8L96.9,82.8z M131.6,73.2
	c0.1,0.3,0.1,0.5,0.1,0.7l-0.1,1.2l-0.1,2.2v0.5l0.2,1v1.1l0.1,1l0.6-0.5l1.1-1.1l0.7-1c0.2-0.2,0.5-0.5,0.9-1
	c0.3-0.2,0.8-0.4,1.4-0.4c0.5,0,0.9,0.1,1.2,0.2l0.6,0.8l0.7,0.9l0.8,1.3c0.3,0.6,0.7,1,1,1.1l0.3,0.2l0.2,0.1
	c0.1,0,0.2-0.1,0.3-0.2c0.2-0.3,0.6-0.6,1.1-1.1c0.3,1.4,0.4,2.1,0.6,2.3c-0.9,1.6-1.9,2.5-3,2.5c-0.5-0.1-0.9-0.2-1.1-0.3
	c-0.3-0.3-0.6-0.6-0.9-1l-0.9-1.2c-0.2-0.3-0.5-0.6-0.9-0.8c-0.3-0.5-0.6-0.8-1-0.8c-0.1,0-0.5,0.3-1.2,1l-1.5,1.5
	c0,0.4-0.2,0.8-0.6,1.2l-1.1,1.5l-0.5,0.5c-0.1,0-0.3,0.1-0.6,0.2c-0.3,0-0.6-0.3-0.9-1.1l-0.3-1.9l-0.2-1.4l-0.1-0.5l-0.2,0.2
	l-0.2,0.4l-0.3,0.3l-0.3,0.3l-0.2,0.1l-0.2-0.5l-0.2-0.8c-0.1-0.5,0-1,0.4-1.5c0.4-0.6,0.6-1.1,0.7-1.4l0.1-2.2l0.1-1.9l0.1-1.4
	c0.1-0.3,0.1-0.7,0.1-1v-0.8l0.3-1.4l0.1-1.5c0-0.8,0.1-1.3,0.2-1.5l0.8-5.8c0.1-0.4,0.3-0.7,0.7-1.1l0.4,0.1l0.2,0.1
	c0.2,0,0.5,0.1,0.7,0.3c0.3,0.1,0.4,0.3,0.5,0.6l0.3,0.7l0.3,0.6l0.4,1.1l0.1,1c0,0.3,0,0.6,0,0.7l-0.2,1l-0.5,2.4
	c-0.1,0.2-0.3,0.9-0.6,2.2C131.9,71.4,131.8,72.1,131.6,73.2L131.6,73.2z M144.5,68.9c-0.1-0.6,0-1.1,0.3-1.7
	c0.3-0.5,0.7-0.9,1.2-1.1c0-0.3,0.2-0.5,0.5-0.7c0.5-0.3,1.1-0.4,1.6-0.5c0.3,0.1,0.5,0.3,0.7,0.5c0.1,1.4,0.1,2.2-0.1,2.5
	c0,0.2,0,0.4-0.1,0.7c0,0.1-0.1,0.3-0.3,0.6c-0.3,0.3-0.6,0.6-0.9,0.8l-0.6,0.4c-0.4,0-0.6,0-0.7,0.1c-0.5,0-0.9-0.1-1.1-0.4
	l0.1-0.1C144.7,69.5,144.6,69.1,144.5,68.9L144.5,68.9z M142.5,82.3l-0.2-0.9l-0.1-0.7l0.7-0.7c0.2-0.3,0.5-0.6,0.8-0.9
	c0-0.1,0.2-0.5,0.7-1.1c0.4-0.5,0.7-0.9,0.9-1.1c0.1-0.4,0.3-0.7,0.7-0.9c1,0,1.9,0.4,2.5,1.1l0.5,1.7c0.1,0.6,0.2,1,0.3,1.2
	l0.5,1.2c0.3,0.5,0.8,0.8,1.3,0.9l0.5-0.1l0.8-0.4c0.1-0.3,0.2-0.5,0.4-0.7l0.4-0.3l0.3-0.2l0.2,1.3l0.1,1.1c-0.4,1.1-1.6,2-3.7,2.6
	l-0.8-0.2l-0.8-0.4c-0.1-0.1-0.3-0.2-0.6-0.5c-0.2-0.3-0.5-0.6-0.7-1.1l-0.5-0.8l-0.8-1c-0.3-0.5-0.5-0.7-0.9-0.8
	c-0.3,0-0.5,0.2-0.9,0.6l-0.8,1.1c-0.1,0-0.3,0.1-0.5,0.4l-0.3,0.4L142.5,82.3z M158.2,86.4c-0.5,0.3-0.9,0.5-1.2,0.5
	c-1.1,0-1.8-0.5-2.2-1.4l-0.1-0.6c0-0.2,0-0.4,0-0.8l0.1-0.9l0.2-0.7l-0.3-0.1l-0.2,0.1l-0.3,0.3l-0.2,0.3l-0.1-0.1l-0.1-0.1v-0.7
	l0.1-0.4l-0.1-0.2l-0.2-0.4c-0.1-0.6,0.5-1.4,1.8-2.3l0.9-1.3l1-1.3c0.2-0.3,0.5-0.5,0.9-0.7l0.3-0.6l0.4-0.6l1.9-1.9l0.5-0.4
	l0.4-0.4l0.7-0.2c0.1-0.1,0.1-0.3,0.3-0.7c0.1-0.5,0.2-1.1,0.3-1.8l0.3-2.5l1.2-4.2c0.1-0.4,0.2-0.7,0.3-0.8
	c0.1-0.2,0.2-0.4,0.5-0.6c0.3-0.4,0.6-0.7,1-1h0.3c0.5,0,0.9,0.5,1.1,1.6c0.2,1,0.1,1.9-0.1,2.6c0.1,0.4,0.1,0.8,0,1.1l-0.3,1.2
	l-0.1,0.9c0.1,0.8-0.1,1.7-0.6,2.8c0,0.7-0.1,1.2-0.3,1.6c0.1,0.3,0,0.6-0.1,0.9l-0.5,1.3c-0.2,0.6-0.2,1.5,0,2.7
	c0.5,3,1.7,4.7,3.5,4.9l2.2-1l0.2,0.1l0.1,0.2v0.3v0.4l0.2,0.6l0.2,0.7c-0.5,0.8-1.5,1.3-2.9,1.6c-0.4,0.1-0.8,0.1-1.2,0.1
	c-2.1-0.5-3.3-1.5-3.9-3.1l-0.5-0.8l-0.2-0.6l-0.1-0.3c-0.3,0-0.5,0.2-0.8,0.6l-0.5,1l-0.2,0.6l-2.4,3.5l-0.5,0.5
	C158.9,85.9,158.6,86.1,158.2,86.4L158.2,86.4z M161.5,78.7l1.3-2.9l-0.2-1.4l-0.8,0.8l-0.5,0.8l-0.3,0.5c-0.3,0.3-0.5,0.7-0.7,1.2
	l-1,1.9c-0.7,1.4-1,2.5-0.9,3.2c0.1,0,0.3-0.1,0.5-0.3l0.6-0.7l0.4-0.5L161.5,78.7z M175.8,86.4c-0.5,0.3-0.9,0.5-1.2,0.5
	c-1.1,0-1.9-0.5-2.2-1.4l-0.1-0.6c0-0.2,0-0.4,0-0.8l0.1-0.9l0.3-0.7l-0.3-0.1l-0.3,0.1l-0.3,0.3l-0.2,0.3l-0.2-0.1l-0.1-0.1v-0.7
	l0.1-0.4l-0.1-0.2l-0.2-0.4c-0.1-0.6,0.5-1.4,1.9-2.3l0.9-1.3l1-1.3c0.2-0.3,0.5-0.5,0.9-0.7l0.3-0.6l0.4-0.6l1.9-1.9l0.5-0.4
	l0.4-0.4l0.7-0.2c0.1-0.1,0.1-0.3,0.2-0.7c0.1-0.5,0.2-1.1,0.3-1.8l0.3-2.5l1.2-4.2c0.1-0.4,0.2-0.7,0.3-0.8
	c0.1-0.2,0.2-0.4,0.5-0.6c0.3-0.4,0.6-0.7,1-1h0.3c0.5,0,0.9,0.5,1.1,1.6c0.2,1,0.2,1.9-0.1,2.6c0.1,0.4,0.1,0.8,0,1.1l-0.3,1.2
	l-0.1,0.9c0.1,0.8-0.1,1.7-0.6,2.8c0,0.7-0.1,1.2-0.3,1.6c0.1,0.3,0,0.6-0.1,0.9l-0.5,1.3c-0.2,0.6-0.2,1.5,0,2.7
	c0.5,3,1.7,4.7,3.6,4.9l2.2-1l0.2,0.1l0.1,0.2v0.3v0.4l0.2,0.6l0.2,0.7c-0.5,0.8-1.5,1.3-2.9,1.6c-0.4,0.1-0.8,0.1-1.2,0.1
	c-2.1-0.5-3.3-1.5-3.9-3.1l-0.5-0.8L181,80l-0.1-0.3c-0.3,0-0.5,0.2-0.7,0.6l-0.5,1l-0.2,0.6l-2.5,3.2l-0.5,0.5
	C176.4,85.9,176.2,86.1,175.8,86.4L175.8,86.4z M179,78.7l1.3-2.9l-0.2-1.4l-0.8,0.8l-0.5,0.8l-0.3,0.5c-0.3,0.3-0.5,0.7-0.7,1.2
	l-1,1.9c-0.7,1.4-1,2.5-0.9,3.2c0.1,0,0.3-0.1,0.4-0.3l0.6-0.7l0.4-0.5L179,78.7z M190.9,85c0-0.1-0.1-0.2-0.2-0.3
	c0-0.1-0.1-0.2-0.4-0.4c-0.1-0.2-0.4-0.6-0.7-1.1l-0.5-1.2l-0.3-1.4v-0.7l0.1-0.9l0.2-1l0.3-1l0.4-1.1c0.3-0.7,0.5-1.1,0.7-1.1
	c0.3-0.5,1-1.1,2-1.9c0.1-0.3,0.6-0.6,1.6-0.7c0.7,0,1.3,0.2,1.8,0.7c0.3,0.1,0.5,0.5,0.6,1.3c0.2,0.8,0.1,1.3-0.1,1.5l-0.1,0.5
	l-0.3,0.7c-0.2,0.4-0.6,1-1.3,1.8c-0.4,0.5-0.8,0.9-1.3,1.1l-0.5,0.7l-0.5,0.5l-0.1,0.5c0.2,0.5,0.5,1,0.9,1.3
	c0.1,0.1,0.7,0.3,1.7,0.6c1.5,0,2.9-0.6,3.9-1.7c0.2,0,0.4-0.2,0.6-0.5c0.2-0.3,0.4-0.5,0.6-0.6c0.2,0,0.3,0.2,0.3,0.5l0.1,0.3
	c0.1,0.9,0.2,1.5,0,1.8l-1.8,1.3l-1.9,1.3l-0.8,0.3l-1,0.1l-1,0.2l-0.7-0.1C192.6,86,191.8,85.6,190.9,85L190.9,85z M193.7,75.6
	c-0.4,0-0.8,0.3-1.2,0.9c-0.3,0.5-0.5,1.1-0.6,1.7l0.3,0.1c0.3,0,0.5-0.1,0.6-0.3l0.4-0.4c0.5-0.2,0.8-0.7,0.8-1.6L193.7,75.6z
	 M205.9,87.2c0,0.3-0.5,0.5-1.4,0.5c-0.5,0-0.7,0-0.8-0.1l-0.2-0.4v-0.5l-0.2-0.4v-1.2l0.1-1.1v-0.7l0.2-0.9v-0.9V81
	c0.1-0.2,0.1-0.6,0.1-1c0-0.1-0.1-0.3-0.3-0.3c-0.3,0-0.6,0.2-0.8,0.5l-0.9,1.3l-0.8,1.2l-0.4,0.3l-0.2,0.2l-0.1-0.2l-0.2-1
	l-0.1-1.1c-0.1-0.4,0-0.7,0.3-0.9c0.1-0.3,0.2-0.6,0.4-0.9l0.9-1.3l1.9-2.5c0.7-0.9,1.4-1.3,2.2-1.4c0.9,0,1.4,0.7,1.7,2
	c0,0.2,0.1,0.4,0.1,0.7c0,0.2,0,0.5-0.1,1.1l-0.1,0.9l-0.3,1.9l-0.1,1.3v0.7l0.3-0.1l0.2-0.5l0.4-0.6c0.3-0.5,0.8-1.1,1.5-1.7l0.7-1
	l0.9-0.9c0.3-0.3,0.7-0.4,1.4-0.4c0.4,0,0.8,0.1,1.2,0.2l0.7,0.8l0.7,0.9l0.8,1.3c0.3,0.6,0.7,1,0.9,1.1l0.3,0.2l0.2,0.1
	c0.3-0.3,0.8-0.8,1.5-1.4c0.2,1.3,0.4,2,0.5,2.3c-0.9,1.6-1.9,2.5-2.9,2.5c-0.2-0.1-0.6-0.2-1.1-0.3c-0.5-0.4-0.8-0.7-1-1l-0.9-1.2
	c-0.3-0.4-0.6-0.7-0.9-0.8c-0.3-0.5-0.6-0.8-0.9-0.8c-0.1,0-0.5,0.3-1.2,1l-1.5,1.5c-0.1,0.4-0.2,0.8-0.6,1.2l-1.1,1.5L205.9,87.2z
	 M237.9,85.5c-0.4-3.5-0.4-5.8-0.1-7l-0.1-0.3l-0.1-0.1l-0.5,0.8l-0.6,0.9l-1.3,1.7l-1.4,1.7l-0.2-0.6l-0.3-0.9
	c-0.1-0.7,0-1.2,0.3-1.5c0.1-0.1,0.2-0.3,0.4-0.5l0.6-0.8l1.5-2.9l1.2-2.5c0.1-0.3,0.3-0.7,0.4-1.1c0.1-0.2,0.1-0.5,0.1-0.8h-0.5
	h-1.8l-1.8-0.1l-0.1,0.1h-0.2c-1,0-1.5-0.3-1.7-0.7c-0.2-1.1-0.3-1.7-0.2-2c0.1-0.5,0.7-0.7,1.5-0.7l3.5,0.1h0.1l0.2,0.1l0.7-0.2
	c0.1,0,0.3,0,0.3,0.1l0.1,0.1c0.5-0.1,0.9-0.4,1-0.8l0.6-1.7c0.2-0.7,0.5-1.1,0.9-1.3l0.4,0.1l0.2,0.1c0.5,0.2,0.8,0.5,0.8,1
	l0.1,0.7l-0.2,0.8l-0.1,0.6c0.1,0.2,0.2,0.4,0.4,0.6c0.2,0,0.3,0.2,0.3,0.4l0.1,1.3l0.2,1.2c0,0.1,0,0.3-0.2,0.4l-0.7,0.1
	c-0.2,0-0.4,0.1-0.6,0.1c-0.1,0.1-0.1,0.3-0.2,0.8l-0.4,3.9l-0.2,3.6v1.5l0.1,1.3c0.1,0.2,0.1,0.3,0.2,0.5l0.1,0.2
	c0.4,0,0.7-0.1,1-0.3l0.9-1l0.7-0.9l0.7-0.7l0.5-0.4c0.1,0,0.2,0.2,0.4,0.6c0.1,0.6,0.1,1.2,0,1.6c0,0.2-0.3,0.6-0.8,1.3l-0.5,0.7
	l-0.5,0.6l-0.5,0.3c-1.4,1.7-2.3,2.6-2.8,2.7c-1.2-0.4-1.9-1.1-2.2-2L237.9,85.5z M245,82.7l-0.1-0.5l-0.3-1.4l0.3-0.5l0.4-0.7
	c0-0.1,0.1-0.3,0.1-0.6l0.8-1.2l0.3-0.7c0.1-0.3,0.2-0.6,0.4-0.8l-0.1-0.3l-0.1-0.3l-0.1-0.3l-0.1-0.3l0.5-0.5l0.7-0.5
	c0.3-0.5,0.8-0.7,1.3-0.7c0.7,0,1.6,0.4,2.6,1.2c0.2,0.2,0.3,0.3,0.5,0.4l0.6,0.8c0.7,0.6,1.1,1.6,1.4,3.2c0.1,0.3,0,1-0.2,2.2
	l-0.3,1.9l0.1,0.2l0.1,0.2c0.3,0,0.6-0.2,1-0.5l1.3-1.1l1-1l0.1-0.3l0.1-0.1c0.1,0,0.2,0.1,0.3,0.4l0.1,0.2c0.2,0.1,0.3,0.5,0.5,1.1
	l-0.3,0.5c-0.1,0.2-0.2,0.5-0.2,0.7c-0.1,0-0.5,0.3-1.3,1.1l-1.3,1.2l-1.1,0.6l-1,0.7l-0.6,0.2c-0.5,0-0.8-0.1-1.1-0.2
	c-0.1,0-0.3-0.3-0.7-0.8v-1.1l0.5-3.6l-0.1-1.7c-0.2-1.3-0.8-2.1-1.7-2.3c-0.3,0.1-0.7,0.3-1,0.7l-1.5,2.4l-0.4,0.4l-0.7,0.9
	l-0.4,0.6L245,82.7L245,82.7L245,82.7z M259.5,85c0-0.1-0.1-0.2-0.1-0.3c0-0.1-0.1-0.2-0.4-0.4c-0.2-0.2-0.4-0.6-0.7-1.1l-0.5-1.2
	l-0.3-1.4v-0.7l0.2-0.9l0.2-1l0.3-1l0.5-1.1c0.3-0.7,0.5-1.1,0.7-1.1c0.3-0.5,1-1.1,2-1.9c0.1-0.3,0.6-0.6,1.6-0.7
	c0.7,0,1.3,0.2,1.8,0.7c0.3,0.1,0.5,0.5,0.6,1.3s0.1,1.3-0.1,1.5l-0.1,0.5l-0.3,0.7c-0.2,0.4-0.6,1-1.3,1.8
	c-0.4,0.5-0.9,0.9-1.3,1.1l-0.5,0.7l-0.6,0.5l-0.1,0.5c0.2,0.5,0.5,1,0.9,1.3c0.2,0.1,0.7,0.3,1.7,0.6c1.5,0,2.8-0.6,3.9-1.7
	c0.2,0,0.4-0.2,0.6-0.5s0.4-0.5,0.6-0.6c0.2,0,0.3,0.2,0.3,0.5l0.1,0.3c0.2,0.9,0.2,1.5,0,1.8l-1.8,1.3l-1.9,1.3l-0.8,0.3l-1,0.1
	l-1,0.2l-0.7-0.1C261.2,86,260.4,85.6,259.5,85L259.5,85z M262.4,75.6c-0.4,0-0.8,0.3-1.2,0.9c-0.3,0.5-0.5,1.1-0.6,1.7l0.3,0.1
	c0.3,0,0.5-0.1,0.6-0.3l0.4-0.4c0.5-0.2,0.8-0.7,0.8-1.6L262.4,75.6z M269,82.8l-0.3-1.1c-0.3-0.9,0.4-2.1,2-3.5
	c0-0.3,0.3-0.6,0.6-1l1.2-1.3l2.7-2.7l1.1-0.9c0.2-0.2,0.5-0.4,1-0.7c0.3-0.2,0.8-0.3,1.4-0.3c0.3,0.1,0.6,0.3,1,0.8
	c0.2,0.9-0.2,1.5-1.1,2c-0.1,0.3-0.6,0.9-1.4,1.8c-0.1,0.1-0.4,0.5-1,1.1c-0.1,0.1-0.3,0.3-0.4,0.3l-0.4,0.8l-0.4,0.4l-0.3,0.2
	c-0.1,0.4-0.4,0.9-1,1.5l-0.8,1l-0.1,0.5l-0.1,0.3l-0.1,0.2c0.5,0,0.9-0.2,1.2-0.5l1.2-1.4c0.3-0.3,0.8-0.7,1.3-1.3
	c0.1-0.3,0.3-0.6,0.6-0.9l0.5-0.6c0.5-0.4,1.1-0.6,1.8-0.6c0.2,0,0.4,0.1,0.5,0.3l0.4,0.7l0.3,0.7v1.2c0.1,0.5,0.3,0.9,0.6,1.2
	c0.3,0.2,0.6,0.4,1.1,0.5c0.6-0.1,1.1-0.5,1.7-1.1l0.2,0.2l0.1,0.5l0.1,0.6c0,0.3,0,0.4-0.1,0.5c0.1,0.4,0,0.8-0.2,1.1l-0.6,0.7
	l-0.8,0.5c-0.2,0.1-0.5,0.2-1,0.3l-0.2-0.1l-0.3-0.1l-0.6,0.1c-0.4,0-0.9-0.2-1.5-0.7c-0.4-0.4-0.7-0.8-0.9-1.3l-0.2-0.8l-0.3-0.6
	l-0.2-0.3l-0.6,0.4l-0.6,0.8l-0.2,0.2l-0.3,0.1c-0.5,0.9-1,1.5-1.5,1.7c-0.1,0.4-0.4,0.8-1,1.2c-0.6,0.4-1.1,0.7-1.5,0.7l-0.6,0.2
	c-0.9,0-1.6-0.6-2.1-1.9v-0.3c0-0.2,0-0.4,0.1-0.6l0.1-0.5c0,0,0,0,0-0.1C269.3,83,269.2,82.9,269,82.8L269,82.8z M284.3,83v-0.5
	l-0.2-0.7l-0.2-0.7c-0.1-0.3,0-0.6,0.2-0.9l0.9-0.9l0.7-0.8l1.2-1.7c0.1,0,0.1,0,0.2-0.1l0.3-0.3l0.7-0.9l0.5-0.8l0.6-0.7l0.7-0.7
	c0.1-0.1,0.4-0.2,0.8-0.3c1.3,0,2.1,0.7,2.3,1.9c0.1,0.7,0.2,1.1,0.1,1.3l0.1,0.4c0.1,0.7,0.1,1.3,0.1,1.8l-0.3,2.5
	c-0.2,1.1-0.2,2-0.2,2.7l0.2,0.2c0.1,0,0.5-0.3,1.1-0.9L295,82c0.5-1,0.9-1.6,1.2-1.7l0.2,0.2v0.3v0.3l0.5,1.3
	c0,0.2-0.1,0.4-0.4,0.7l-0.4,0.7l-0.5,0.8l-0.8,0.7l-1.8,1.3c-0.5,0.4-0.9,0.9-1.1,1.5l-0.8,0.3l-0.2,0.2l-0.3,0.2
	c-0.3,0-0.5-0.1-0.7-0.2l-0.3-0.6c-0.5-0.8-1-1.9-1.3-3.4l-0.1-0.3l-0.1-0.3c-0.1-0.8,0.3-1.3,1.2-1.5c0.2,0.1,0.4,0.2,0.5,0.3
	l0.3,0.4l0.1-0.1l0.1-0.5c0-0.3,0.1-0.6,0.1-1l-0.3-2.7l-0.1-0.5c0-0.1-0.1-0.2-0.3-0.4l-0.3-0.1l-0.3,0.2l-0.5,0.5l-0.3,0.4
	c-1.2,1.1-2.1,1.9-2.5,2.6l-0.7,0.9L284.3,83z M300.2,86.2c-0.3-0.1-0.6-0.4-0.9-0.9l-0.3-0.7l-0.2-0.6l-0.5-1.5l-0.1-0.7l-0.1-0.4
	l-0.7,0.4l-0.7,0.7l-0.3,0.3l-0.2,0.3l-0.3,0.1l-0.2-0.5l-0.2-0.8c-0.1-0.7,0-1.1,0.2-1.4l0.7-0.7l0.7-1l1.2-2.3l1-2.1
	c0.5-0.5,1.1-0.8,1.8-0.8c0.3,0,0.5,0.3,0.6,0.8v0.5v0.7l-0.1,0.8c0,0.1-0.1,0.4-0.2,0.9l-0.3,1.5v1.1l0.1,1l0.1,0.9
	c0.1,0.9,0.3,1.5,0.7,1.8h0.3l0.3-0.2l0.4-0.3l0.3-0.2l0.8-1.2l0.7-1.1l0.6-1.3c0.1-0.2,0.3-0.5,0.5-0.9c0.3-0.8,0.9-1.3,1.6-1.3
	c0.9,0,1.4,0.7,1.7,2.1c0.3,1.6,0.9,2.4,1.6,2.4c0.1,0,0.4-0.1,0.7-0.2l0.6-0.5l0.5-0.5c0.1,0,0.3,0.4,0.4,1.3l0.1,0.5
	c0.1,0.6-0.3,1.2-1.1,1.8c-0.8,0.5-1.5,0.7-2.2,0.7s-1.2-0.1-1.5-0.4c-0.3-0.2-0.6-0.4-0.9-0.8l-0.6-1.2l-0.2-0.4l-0.2-0.2l-0.2,0.2
	l-0.3,0.4l-0.6,1l-0.7,1.1l-0.9,1.2c-0.1,0.1-0.3,0.3-0.8,0.7l-0.8,0.3l-0.6,0.1C301.4,86.6,300.9,86.5,300.2,86.2L300.2,86.2z
	 M312.9,82.7l-0.1-0.5l-0.3-1.4l0.3-0.5l0.4-0.7c0-0.1,0.1-0.3,0.1-0.6l0.8-1.2l0.3-0.7c0.1-0.3,0.2-0.6,0.4-0.8l-0.1-0.3l-0.1-0.3
	l-0.1-0.3l-0.1-0.3l0.5-0.5l0.7-0.5c0.3-0.5,0.8-0.7,1.3-0.7c0.7,0,1.6,0.4,2.6,1.2c0.1,0.2,0.3,0.3,0.4,0.4l0.6,0.8
	c0.7,0.6,1.1,1.6,1.4,3.2c0,0.3,0,1-0.2,2.2l-0.3,1.9l0.1,0.2l0.1,0.2c0.3,0,0.6-0.2,1-0.5l1.3-1.1l1-1l0.1-0.3l0.1-0.1
	c0.1,0,0.2,0.1,0.3,0.4v0.2c0.2,0.1,0.3,0.5,0.5,1.1l-0.3,0.5c-0.1,0.2-0.2,0.5-0.2,0.7c-0.1,0-0.5,0.3-1.3,1.1l-1.3,1.2l-1.1,0.6
	l-1.1,0.7l-0.6,0.2c-0.5,0-0.8-0.1-1.1-0.2c-0.1,0-0.3-0.3-0.7-0.8v-1.1l0.5-3.6l-0.2-1.7c-0.2-1.3-0.8-2.1-1.7-2.3
	c-0.3,0.1-0.7,0.3-1,0.7l-1.5,2.4L314,81l-0.7,0.9l-0.4,0.6l-0.2,0.2l-0.1,0.1L312.9,82.7z M327.4,85c0-0.1-0.1-0.2-0.1-0.3
	c0-0.1-0.1-0.2-0.4-0.4c-0.1-0.2-0.4-0.6-0.7-1.1l-0.5-1.2l-0.3-1.4v-0.7l0.1-0.9l0.2-1l0.3-1l0.5-1.1c0.3-0.7,0.5-1.1,0.7-1.1
	c0.3-0.5,1-1.1,2-1.9c0.1-0.3,0.6-0.6,1.6-0.7c0.7,0,1.3,0.2,1.8,0.7c0.3,0.1,0.5,0.5,0.6,1.3s0.1,1.3-0.1,1.5l-0.1,0.5l-0.3,0.7
	c-0.2,0.4-0.6,1-1.3,1.8c-0.4,0.5-0.8,0.9-1.3,1.1l-0.5,0.7L329,81l-0.1,0.5c0.2,0.5,0.5,1,0.8,1.3c0.2,0.1,0.7,0.3,1.7,0.6
	c1.5,0,2.9-0.6,3.9-1.7c0.2,0,0.3-0.2,0.6-0.5c0.2-0.3,0.4-0.5,0.6-0.6c0.2,0,0.3,0.2,0.3,0.5l0.1,0.3c0.1,0.9,0.2,1.5,0,1.8
	l-1.8,1.3l-1.9,1.3l-0.8,0.3l-1,0.1l-1,0.2l-0.7-0.1C329.1,86,328.3,85.6,327.4,85L327.4,85z M330.3,75.6c-0.4,0-0.8,0.3-1.2,0.9
	c-0.3,0.5-0.5,1.1-0.6,1.7l0.3,0.1c0.3,0,0.5-0.1,0.6-0.3l0.4-0.4c0.5-0.2,0.8-0.7,0.8-1.6L330.3,75.6z"/>
<path class="st3" d="M97.3,83.5L97,82.3c-0.2-0.9,0.4-2.1,2-3.5c0.1-0.3,0.3-0.6,0.6-1.1l1.3-1.3l2.7-2.7l1.1-0.9
	c0.2-0.2,0.5-0.4,1-0.7c0.3-0.2,0.8-0.3,1.4-0.4c0.3,0.1,0.6,0.3,1,0.8c0.1,0.8-0.2,1.5-1.2,1.9c-0.1,0.3-0.6,0.9-1.4,1.8
	c-0.1,0.1-0.4,0.5-1,1.2c-0.1,0.1-0.2,0.3-0.4,0.3l-0.4,0.8l-0.4,0.4l-0.3,0.2c-0.1,0.4-0.5,0.9-1,1.5l-0.8,0.9l-0.1,0.5l-0.1,0.3
	l-0.1,0.2c0.5,0,0.9-0.2,1.2-0.5l1.3-1.4c0.3-0.3,0.7-0.8,1.3-1.3c0.1-0.3,0.3-0.6,0.5-0.9l0.5-0.6c0.5-0.4,1.1-0.6,1.8-0.6
	c0.2,0,0.3,0.1,0.5,0.3l0.4,0.7l0.3,0.7v1.2c0.1,0.5,0.3,0.9,0.5,1.2c0.3,0.2,0.7,0.4,1.1,0.5c0.6-0.1,1.2-0.5,1.7-1.1l0.1,0.1
	l0.1,0.5l0.2,0.6c0,0.3,0,0.4-0.1,0.5c0.1,0.4,0,0.8-0.2,1.1l-0.6,0.7l-0.5,0.9c-0.2,0.1-0.5,0.2-1,0.3l-0.2-0.1l-0.3-0.1l-0.6,0.1
	c-0.4,0-0.9-0.3-1.5-0.7c-0.4-0.4-0.7-0.8-0.9-1.3l-0.2-0.8l-0.2-0.6l-0.2-0.3l-0.6,0.4l-0.6,0.8l-0.2,0.2l-0.3,0.1
	c-0.5,0.9-1,1.5-1.5,1.7c-0.1,0.4-0.4,0.8-1,1.2c-0.6,0.4-1.1,0.7-1.5,0.8l-0.6,0.3c-0.9,0-1.7-0.6-2.1-1.9v-0.3
	c0-0.2,0-0.4,0.1-0.6l0.1-0.5c0,0,0,0,0-0.1C97.5,83.6,97.4,83.5,97.3,83.5L97.3,83.5z M131.9,73.9c0.1,0.3,0.1,0.5,0.1,0.7
	l-0.1,1.2l-0.1,2.2v0.5l0.2,1v1.1l0.1,1l0.6-0.4l1.1-1.2l0.7-1c0.1-0.2,0.5-0.5,0.9-0.9c0.3-0.3,0.7-0.4,1.4-0.4
	c0.5,0,0.9,0.1,1.2,0.2l0.6,0.8l0.7,0.9l0.8,1.3c0.3,0.6,0.7,1,1,1.2l0.3,0.2l0.2,0.1c0.1,0,0.2-0.1,0.3-0.3
	c0.2-0.3,0.6-0.6,1.1-1.1c0.3,1.4,0.5,2.1,0.6,2.3c-1,1.6-2,2.4-3,2.5c-0.5-0.1-0.8-0.2-1.1-0.3c-0.3-0.2-0.6-0.6-0.9-1l-0.9-1.2
	c-0.2-0.3-0.5-0.6-0.9-0.8c-0.3-0.5-0.6-0.8-1-0.8c-0.1,0-0.5,0.3-1.2,1l-1.5,1.5c-0.1,0.4-0.2,0.8-0.6,1.2l-1.1,1.5l-0.5,0.5
	c-0.1,0-0.3,0.1-0.6,0.2c-0.3,0-0.6-0.3-0.9-1l-0.3-1.9l-0.2-1.5l-0.1-0.5l-0.2,0.2l-0.2,0.4l-0.3,0.3l-0.2,0.3l-0.3,0.1l-0.2-0.5
	l-0.1-0.8c-0.1-0.5,0-1,0.4-1.5c0.4-0.6,0.6-1.1,0.7-1.4l0.1-2.2l0.1-1.9l0.1-1.4c0.1-0.3,0.1-0.7,0.1-1.1v-0.8l0.3-1.4l0.1-1.5
	c0.1-0.8,0.1-1.3,0.2-1.5l0.8-5.8c0.1-0.4,0.3-0.7,0.7-1h0.4l0.2,0.1c0.2,0,0.5,0.1,0.8,0.3c0.2,0.1,0.4,0.3,0.5,0.5l0.3,0.7
	l0.3,0.6l0.4,1.1l0.1,1c0,0.3,0,0.6,0,0.7l-0.2,1l-0.5,2.5c-0.1,0.1-0.3,0.9-0.7,2.2C132.2,72,132.1,72.7,131.9,73.9L131.9,73.9z
	 M144.8,69.5c-0.1-0.6,0-1.1,0.3-1.7s0.7-0.9,1.2-1.1c0-0.3,0.2-0.5,0.5-0.7c0.5-0.3,1.1-0.5,1.6-0.5c0.3,0.1,0.5,0.3,0.7,0.5
	c0.1,1.4,0.1,2.2-0.1,2.5c0,0.2,0,0.4-0.1,0.6c0,0.1-0.1,0.3-0.3,0.6c-0.3,0.3-0.6,0.6-0.9,0.8l-0.6,0.4c-0.4,0-0.6,0-0.7,0.1
	c-0.5,0-0.9-0.1-1-0.4l0.1-0.1C145.1,70.1,144.9,69.8,144.8,69.5L144.8,69.5z M142.8,82.9l-0.2-0.9l-0.1-0.8l0.7-0.7
	c0.2-0.3,0.4-0.6,0.7-0.8c0-0.1,0.2-0.5,0.7-1.1c0.4-0.5,0.7-0.9,0.9-1.1c0.1-0.4,0.4-0.7,0.7-1c1,0,1.9,0.4,2.5,1.1l0.5,1.7
	c0.1,0.6,0.2,1,0.3,1.2l0.5,1.2c0.4,0.5,0.8,0.8,1.3,0.9l0.5-0.1l0.8-0.4c0.1-0.2,0.2-0.5,0.4-0.7l0.4-0.3l0.3-0.2l0.2,1.2l0.1,1.1
	c-0.4,1.1-1.6,2-3.7,2.6l-0.8-0.2l-0.8-0.4c-0.1-0.1-0.3-0.2-0.6-0.5c-0.2-0.2-0.5-0.6-0.7-1.1l-0.4-0.8l-0.8-1
	c-0.3-0.5-0.5-0.7-0.9-0.8c-0.3,0-0.5,0.2-0.9,0.6l-0.8,1.1c-0.1,0-0.3,0.1-0.5,0.4l-0.3,0.4L142.8,82.9z M158.5,87
	c-0.5,0.3-0.9,0.5-1.2,0.5c-1.1,0-1.9-0.5-2.2-1.4l-0.1-0.6c0-0.2,0-0.5,0-0.8l0.1-0.9l0.3-0.7l-0.3-0.1l-0.3,0.1l-0.3,0.3l-0.3,0.3
	l-0.1-0.1l-0.1-0.1v-0.7l0.1-0.4l-0.1-0.2l-0.2-0.4c-0.1-0.6,0.5-1.3,1.8-2.3l0.9-1.3l1-1.3c0.2-0.2,0.5-0.5,0.9-0.7l0.3-0.6
	l0.4-0.6l1.9-1.9l0.5-0.4l0.4-0.4l0.7-0.2c0.1-0.1,0.1-0.3,0.3-0.7c0.1-0.5,0.2-1.1,0.3-1.8l0.3-2.5l1.2-4.2
	c0.1-0.4,0.2-0.7,0.3-0.8s0.2-0.4,0.5-0.6c0.3-0.4,0.6-0.7,1-0.9h0.3c0.5,0,0.9,0.5,1.1,1.5c0.2,1,0.2,1.9-0.1,2.6
	c0.1,0.4,0.1,0.8,0,1.1l-0.3,1.2l-0.1,0.9c0.1,0.8-0.1,1.7-0.6,2.8c0,0.7-0.1,1.2-0.3,1.6c0.1,0.3,0,0.6-0.1,0.9l-0.5,1.3
	c-0.2,0.6-0.2,1.5,0,2.7c0.5,3,1.7,4.7,3.6,4.9l2.2-1l0.2,0.1l0.1,0.2v0.3v0.4l0.2,0.6l0.2,0.7c-0.5,0.8-1.5,1.3-2.9,1.6
	c-0.4,0.1-0.8,0.1-1.2,0.1c-2.1-0.4-3.3-1.5-3.9-3.1l-0.5-0.8l-0.2-0.6l-0.1-0.2c-0.3,0-0.5,0.2-0.7,0.6l-0.5,1l-0.2,0.6l-2.4,3.5
	l-0.5,0.5C159.2,86.5,158.9,86.7,158.5,87L158.5,87z M161.8,79.3l1.3-2.9l-0.2-1.4l-0.8,0.8l-0.5,0.8l-0.3,0.5
	c-0.3,0.3-0.5,0.7-0.7,1.2l-1,1.9c-0.7,1.4-1,2.5-0.9,3.2c0.1,0,0.3-0.1,0.4-0.3l0.6-0.7l0.4-0.5L161.8,79.3z M176.1,87
	c-0.5,0.3-0.9,0.5-1.2,0.5c-1.1,0-1.8-0.5-2.2-1.4l-0.1-0.6c-0.1-0.2-0.1-0.5,0-0.8l0.1-0.9l0.3-0.7l-0.3-0.1l-0.2,0.1l-0.3,0.3
	l-0.3,0.3l-0.1-0.1l-0.1-0.1v-0.7l0.1-0.4l-0.1-0.2l-0.1-0.4c-0.1-0.6,0.5-1.3,1.8-2.3l0.9-1.3l1-1.3c0.2-0.2,0.5-0.5,0.9-0.7
	l0.3-0.6L177,75l1.9-1.9l0.5-0.4l0.4-0.4l0.7-0.2c0.1-0.1,0.1-0.3,0.2-0.7c0.1-0.5,0.2-1.1,0.3-1.8l0.3-2.5l1.2-4.2
	c0.1-0.4,0.2-0.7,0.3-0.8s0.2-0.4,0.5-0.6c0.2-0.4,0.6-0.7,1-0.9h0.3c0.5,0,0.9,0.5,1.1,1.5c0.2,1,0.2,1.9-0.1,2.6
	c0.1,0.4,0.1,0.8,0,1.1l-0.3,1.2l-0.1,0.9c0.1,0.8-0.1,1.7-0.6,2.8c0,0.7-0.1,1.2-0.3,1.6c0.1,0.3,0,0.6-0.1,0.9l-0.5,1.3
	c-0.2,0.6-0.2,1.5,0,2.7c0.5,3,1.7,4.7,3.6,4.9l2.2-1l0.2,0.1l0.1,0.2v0.3v0.4l0.2,0.6l0.2,0.7c-0.5,0.8-1.5,1.3-2.9,1.6
	c-0.4,0.1-0.8,0.1-1.2,0.1c-2.1-0.4-3.3-1.5-3.9-3.1l-0.5-0.8l-0.2-0.6l-0.1-0.2c-0.3,0-0.5,0.2-0.8,0.6l-0.5,1l-0.2,0.6l-2.4,3.5
	l-0.5,0.5C176.7,86.5,176.5,86.7,176.1,87L176.1,87z M179.3,79.3l1.3-2.9l-0.2-1.4l-0.9,0.8l-0.5,0.8l-0.3,0.5
	c-0.3,0.3-0.5,0.7-0.7,1.2l-1,1.9c-0.7,1.4-1,2.5-0.9,3.2c0.1,0,0.3-0.1,0.5-0.3l0.6-0.7l0.4-0.5L179.3,79.3z M191.2,85.6
	c0-0.1-0.1-0.2-0.2-0.3c0-0.1-0.1-0.2-0.4-0.4c-0.1-0.2-0.4-0.5-0.7-1.1l-0.5-1.2l-0.3-1.4v-0.7l0.1-0.9l0.2-1l0.3-1l0.4-1.1
	c0.3-0.7,0.5-1.1,0.7-1.1c0.3-0.5,1-1.1,2-1.9c0.1-0.3,0.6-0.6,1.6-0.7c0.7,0,1.3,0.2,1.8,0.7c0.3,0.1,0.5,0.5,0.6,1.3
	s0.1,1.3-0.1,1.5l-0.1,0.5l-0.3,0.7c-0.2,0.3-0.6,0.9-1.3,1.8c-0.4,0.5-0.9,0.9-1.3,1.1l-0.5,0.7l-0.6,0.5l-0.1,0.5
	c0.2,0.6,0.5,1,0.9,1.3c0.2,0.1,0.7,0.3,1.7,0.6c1.5,0,2.8-0.5,3.9-1.7c0.2,0,0.4-0.1,0.6-0.5c0.2-0.3,0.4-0.5,0.6-0.6
	c0.2,0,0.3,0.1,0.3,0.5l0.1,0.3c0.2,0.9,0.2,1.5,0,1.8l-1.8,1.3l-1.9,1.4l-0.8,0.3l-1,0.1l-1,0.2l-0.7-0.1
	C192.9,86.7,192.1,86.3,191.2,85.6L191.2,85.6z M194.1,76.2c-0.4,0-0.8,0.3-1.2,0.9c-0.3,0.5-0.5,1.1-0.6,1.7l0.3,0.1
	c0.3-0.1,0.5-0.1,0.6-0.3l0.4-0.4c0.5-0.2,0.8-0.7,0.8-1.6L194.1,76.2z M206.2,87.8c0,0.4-0.5,0.5-1.4,0.5c-0.5,0-0.8,0-0.9-0.1
	l-0.2-0.4v-0.5l-0.2-0.4l0.1-1.3l0.1-1l0.1-0.7L204,83v-0.9l-0.1-0.5c0.1-0.2,0.1-0.5,0.1-1c0-0.2-0.1-0.3-0.3-0.3
	c-0.3,0-0.6,0.2-0.8,0.5l-0.8,1.3l-0.9,1.1l-0.4,0.3l-0.2,0.2l-0.1-0.2l-0.2-1l-0.1-1c-0.1-0.4,0-0.7,0.3-0.9
	c0.1-0.3,0.2-0.6,0.4-0.9l0.9-1.4l1.9-2.5c0.7-0.9,1.4-1.3,2.2-1.3c0.9,0,1.5,0.7,1.7,2c0,0.2,0.1,0.4,0.1,0.7c0,0.2,0,0.5-0.1,1.1
	l-0.1,0.9l-0.3,1.9l-0.1,1.2V83l0.3-0.1l0.3-0.5l0.4-0.6c0.3-0.5,0.8-1,1.5-1.7l0.6-1l0.9-0.9c0.3-0.3,0.7-0.4,1.4-0.4
	c0.4,0,0.9,0.1,1.2,0.2l0.7,0.8l0.7,0.9l0.7,1.3c0.3,0.6,0.7,1,0.9,1.2l0.3,0.2l0.3,0.1c0.3-0.3,0.7-0.8,1.5-1.4
	c0.2,1.3,0.4,2,0.5,2.3c-1,1.6-2,2.4-3,2.5c-0.2-0.1-0.6-0.2-1.1-0.3c-0.5-0.4-0.8-0.7-1-1l-0.9-1.2c-0.3-0.4-0.6-0.7-0.9-0.8
	c-0.3-0.5-0.6-0.8-0.9-0.8c-0.1,0-0.5,0.3-1.2,1l-1.5,1.5c0,0.4-0.2,0.8-0.6,1.2l-1.1,1.5L206.2,87.8z M238.3,86.1
	c-0.4-3.5-0.4-5.8-0.1-7v-0.3h-0.1l-0.5,0.8l-0.6,0.9l-1.3,1.6l-1.4,1.7l-0.2-0.6l-0.2-1c-0.1-0.7,0-1.2,0.3-1.5
	c0.1-0.1,0.2-0.2,0.4-0.5l0.6-0.8l1.5-2.9l1.2-2.5c0.1-0.3,0.3-0.7,0.4-1.1c0.1-0.2,0.1-0.4,0.1-0.7h-0.5l-1.8-0.1l-1.7-0.1
	l-0.1,0.1H234c-1,0-1.5-0.2-1.7-0.7c-0.2-1.1-0.3-1.7-0.2-1.9c0.1-0.5,0.6-0.7,1.5-0.7l3.5,0.1l0.1,0.1h0.2l0.7-0.2
	c0.2,0,0.3,0,0.3,0.1l0.1,0.1c0.5-0.1,0.9-0.4,1-0.8l0.6-1.7c0.3-0.7,0.5-1.1,0.9-1.3h0.4l0.2,0.1c0.5,0.2,0.8,0.5,0.9,1.1l0.1,0.7
	l-0.2,0.8l-0.1,0.5c0.1,0.2,0.2,0.4,0.4,0.6c0.1,0.1,0.3,0.2,0.3,0.4l0.1,1.3l0.2,1.2c0,0.1,0,0.2-0.2,0.3l-0.7,0.1
	c-0.2,0-0.4,0-0.6,0.1c-0.1,0.1-0.1,0.4-0.2,0.8l-0.4,3.9l-0.2,3.6v1.5l0.1,1.3c0,0.2,0.1,0.3,0.2,0.5l0.1,0.2c0.4,0,0.7-0.1,1-0.3
	l0.9-1L244,82l0.7-0.7l0.5-0.4c0.1,0,0.2,0.2,0.4,0.6c0.1,0.6,0.1,1.2,0.1,1.6c-0.1,0.2-0.3,0.7-0.9,1.3l-0.5,0.7l-0.6,0.6l-0.5,0.3
	c-1.4,1.7-2.3,2.6-2.8,2.7c-1.2-0.5-1.9-1.1-2.2-2L238.3,86.1z M245.3,83.3l-0.1-0.5l-0.3-1.4l0.3-0.5l0.4-0.7
	c0-0.1,0.1-0.2,0.1-0.5l0.8-1.2l0.3-0.7c0.1-0.3,0.2-0.6,0.4-0.7l-0.1-0.3l-0.1-0.3l-0.1-0.3l-0.1-0.3l0.5-0.5l0.7-0.5
	c0.3-0.5,0.8-0.7,1.3-0.7c0.7,0,1.6,0.4,2.6,1.3c0.1,0.2,0.3,0.3,0.5,0.4l0.6,0.8c0.6,0.5,1.1,1.6,1.4,3.2c0,0.3,0,1-0.2,2.2
	l-0.3,1.9l0.1,0.2l0.1,0.2c0.3,0,0.6-0.2,1-0.5l1.3-1.1l1-1l0.1-0.3l0.1-0.1c0.1,0,0.2,0.1,0.3,0.4V82c0.2,0.2,0.3,0.5,0.5,1.1
	l-0.3,0.5c-0.1,0.2-0.2,0.5-0.2,0.7c-0.1,0-0.5,0.4-1.3,1.1l-1.3,1.2l-1.1,0.6l-1.1,0.7l-0.6,0.2c-0.5,0-0.8-0.1-1.1-0.2
	c-0.1-0.1-0.3-0.3-0.7-0.8V86l0.5-3.6l-0.2-1.7c-0.2-1.4-0.8-2.1-1.7-2.3c-0.3,0.1-0.7,0.3-1,0.7l-1.5,2.4l-0.3,0.4l-0.7,0.9
	L245.3,83.3l-0.1,0.3l-0.1,0.1L245.3,83.3z M259.8,85.6c0-0.1-0.1-0.2-0.1-0.3c0-0.1-0.1-0.2-0.4-0.4c-0.1-0.2-0.4-0.5-0.7-1.1
	l-0.5-1.2l-0.3-1.4v-0.7l0.1-0.9l0.2-1l0.3-1l0.5-1.1c0.3-0.7,0.5-1.1,0.7-1.1c0.3-0.5,1-1.1,2-1.9c0.1-0.3,0.6-0.6,1.6-0.7
	c0.7,0,1.3,0.2,1.8,0.7c0.3,0.1,0.5,0.5,0.6,1.3s0.1,1.3-0.1,1.5l-0.1,0.5l-0.3,0.7c-0.2,0.3-0.6,0.9-1.3,1.8
	c-0.4,0.5-0.8,0.9-1.3,1.1l-0.5,0.7l-0.6,0.5l-0.1,0.5c0.2,0.6,0.5,1,0.9,1.3c0.1,0.1,0.7,0.3,1.7,0.6c1.5,0,2.9-0.5,3.9-1.7
	c0.2,0,0.3-0.1,0.6-0.5c0.2-0.3,0.4-0.5,0.6-0.6c0.2,0,0.3,0.1,0.3,0.5l0.1,0.3c0.1,0.9,0.2,1.5,0,1.8l-1.8,1.3l-1.9,1.4l-0.8,0.3
	l-1,0.1l-1,0.2l-0.7-0.1C261.5,86.7,260.7,86.3,259.8,85.6L259.8,85.6z M262.7,76.2c-0.4,0-0.8,0.3-1.2,0.9
	c-0.3,0.5-0.5,1.1-0.6,1.7l0.3,0.1c0.3-0.1,0.5-0.1,0.6-0.3l0.4-0.4c0.5-0.2,0.8-0.7,0.8-1.6L262.7,76.2z M269.3,83.5l-0.3-1.1
	c-0.2-0.9,0.4-2.1,2-3.5c0.1-0.3,0.3-0.6,0.6-1.1l1.2-1.3l2.7-2.7l1.1-0.9c0.2-0.2,0.5-0.4,1-0.7c0.3-0.2,0.8-0.3,1.4-0.4
	c0.3,0.1,0.6,0.3,1,0.8c0.2,0.8-0.2,1.5-1.1,1.9c-0.1,0.3-0.6,0.9-1.4,1.8c-0.1,0.1-0.4,0.5-1,1.2c-0.1,0.1-0.3,0.3-0.4,0.3
	l-0.4,0.8l-0.4,0.4l-0.3,0.2c-0.1,0.4-0.5,0.9-1,1.5l-0.8,0.9l-0.1,0.5l-0.1,0.3l-0.1,0.2c0.5,0,0.9-0.2,1.2-0.5l1.3-1.4
	c0.3-0.3,0.7-0.8,1.3-1.3c0.1-0.3,0.3-0.6,0.5-0.9l0.5-0.6c0.5-0.4,1.1-0.6,1.8-0.6c0.2,0,0.3,0.1,0.5,0.3l0.4,0.7l0.3,0.7v1.2
	c0.1,0.5,0.3,0.9,0.5,1.2c0.3,0.2,0.7,0.4,1.1,0.5c0.6-0.1,1.1-0.5,1.7-1.1l0.1,0.1l0.1,0.5l0.1,0.6c0,0.3,0,0.4-0.1,0.5
	c0.1,0.4,0,0.8-0.2,1.1l-0.6,0.7l-0.8,0.5c-0.2,0.1-0.5,0.2-1,0.3l-0.2-0.1l-0.3-0.1l-0.6,0.1c-0.4,0-0.9-0.3-1.5-0.7
	c-0.4-0.4-0.7-0.8-0.9-1.3l-0.2-0.8l-0.2-0.6l-0.2-0.3l-0.6,0.4l-0.7,0.8l-0.2,0.2l-0.3,0.1c-0.5,0.9-1,1.5-1.5,1.7
	c-0.1,0.4-0.4,0.8-1,1.2c-0.6,0.4-1.1,0.7-1.5,0.8l-0.6,0.2c-0.9,0-1.7-0.6-2.1-1.9v-0.3c0-0.2,0-0.4,0.1-0.6l0.1-0.5c0,0,0,0,0-0.1
	C269.6,83.6,269.5,83.5,269.3,83.5L269.3,83.5z M284.6,83.7v-0.5l-0.2-0.8l-0.2-0.7c-0.1-0.3,0-0.5,0.2-0.9l0.9-0.9l0.7-0.8l1.2-1.7
	c0.1,0,0.1,0,0.2-0.1l0.3-0.3l0.7-0.9l0.5-0.8l0.6-0.7l0.7-0.7c0.1-0.1,0.4-0.2,0.8-0.3c1.3,0,2.1,0.6,2.3,1.9
	c0.1,0.7,0.2,1.1,0.1,1.3l0.1,0.4c0.1,0.7,0.2,1.3,0.1,1.8l-0.3,2.5c-0.2,1.1-0.2,2-0.2,2.7l0.2,0.2c0.1,0,0.5-0.3,1.1-0.9l0.9-0.9
	c0.5-1,0.9-1.6,1.2-1.7l0.2,0.2v0.3l-0.1,0.3l0.5,1.3c0,0.2-0.1,0.4-0.4,0.7l-0.4,0.7l-0.5,0.8l-0.8,0.7l-1.7,1.3
	c-0.5,0.4-0.9,0.9-1.1,1.5l-0.8,0.3l-0.2,0.2l-0.3,0.2c-0.3,0-0.5-0.1-0.6-0.2l-0.3-0.6c-0.5-0.7-0.9-1.9-1.3-3.4l-0.1-0.3l-0.1-0.3
	c-0.1-0.7,0.3-1.3,1.2-1.5c0.2,0.1,0.4,0.2,0.5,0.3l0.3,0.4l0.1-0.1l0.1-0.5c0-0.3,0-0.6,0.1-0.9l-0.3-2.8l-0.1-0.5
	c0-0.1-0.1-0.2-0.3-0.4l-0.3-0.1l-0.3,0.2l-0.5,0.5l-0.3,0.5c-1.2,1.1-2.1,1.9-2.5,2.6l-0.7,1L284.6,83.7z M300.6,86.9
	c-0.3-0.1-0.6-0.4-0.9-0.9l-0.3-0.8l-0.2-0.6l-0.5-1.6l-0.1-0.6l-0.1-0.4l-0.7,0.5l-0.7,0.7l-0.3,0.3l-0.3,0.3l-0.3,0.1l-0.2-0.5
	l-0.1-0.8c-0.1-0.7-0.1-1.1,0.2-1.4l0.7-0.7l0.7-1l1.2-2.3l1.1-2.1c0.5-0.5,1.1-0.8,1.8-0.8c0.3,0,0.5,0.3,0.6,0.8l0.1,0.5v0.7
	l-0.1,0.8c0,0.1-0.1,0.4-0.2,0.9l-0.3,1.5v1.1l0.1,1l0.1,0.9c0.1,0.9,0.3,1.5,0.7,1.8h0.3l0.3-0.2l0.3-0.3l0.3-0.2l0.8-1.2l0.7-1.2
	l0.6-1.3c0.1-0.2,0.2-0.5,0.5-0.9c0.3-0.8,0.9-1.2,1.6-1.3c0.8,0,1.4,0.7,1.7,2.1c0.3,1.6,0.9,2.3,1.6,2.3c0.2,0,0.4-0.1,0.7-0.2
	l0.7-0.5l0.5-0.5c0.1,0,0.3,0.4,0.5,1.3l0.1,0.5c0.1,0.7-0.3,1.3-1.1,1.8c-0.8,0.5-1.5,0.7-2.2,0.7s-1.2-0.1-1.5-0.4
	c-0.3-0.2-0.6-0.4-0.9-0.8l-0.6-1.1l-0.2-0.4l-0.1-0.1l-0.3,0.2l-0.3,0.4l-0.6,1l-0.7,1.2l-0.9,1.2c-0.1,0.1-0.3,0.3-0.8,0.7
	l-0.8,0.3l-0.7,0.1C301.7,87.3,301.2,87.2,300.6,86.9L300.6,86.9z M313.2,83.3l-0.1-0.5l-0.3-1.4l0.3-0.5l0.4-0.7
	c0-0.1,0.1-0.2,0.1-0.5l0.8-1.2l0.4-0.7c0.1-0.3,0.2-0.6,0.4-0.7l-0.1-0.3l-0.1-0.3l-0.1-0.3l-0.1-0.3l0.5-0.5l0.6-0.5
	c0.3-0.5,0.8-0.7,1.3-0.7c0.7,0,1.6,0.4,2.6,1.3c0.1,0.2,0.3,0.3,0.5,0.4l0.6,0.8c0.7,0.5,1.1,1.6,1.4,3.2c0.1,0.3,0,1-0.2,2.2
	l-0.3,1.9l0.1,0.2l0.1,0.2c0.3,0,0.6-0.2,1-0.5l1.3-1.1l1-1l0.2-0.3l0.1-0.1c0.1,0,0.2,0.1,0.3,0.4V82c0.2,0.2,0.3,0.5,0.5,1.1
	l-0.3,0.5c-0.1,0.2-0.2,0.5-0.2,0.7c-0.1,0-0.6,0.4-1.3,1.1l-1.4,1.2l-1.1,0.6l-1.1,0.7l-0.6,0.2c-0.5,0-0.9-0.1-1.1-0.2
	c-0.1-0.1-0.3-0.3-0.7-0.8l0.1-1.1l0.5-3.6l-0.1-1.7c-0.3-1.4-0.8-2.1-1.7-2.3c-0.3,0.1-0.7,0.3-1,0.7l-1.5,2.4l-0.3,0.4l-0.7,0.9
	l-0.4,0.6l-0.2,0.2l-0.1,0.1L313.2,83.3z M327.7,85.6c0-0.1-0.1-0.2-0.2-0.3c0-0.1-0.1-0.2-0.4-0.4c-0.1-0.2-0.4-0.5-0.7-1.1
	l-0.5-1.2l-0.3-1.4v-0.7l0.1-0.9l0.2-1l0.3-1l0.4-1.1c0.3-0.7,0.5-1.1,0.7-1.1c0.3-0.5,1-1.1,2-1.9c0.1-0.3,0.6-0.6,1.6-0.7
	c0.7,0,1.3,0.2,1.8,0.7c0.3,0.1,0.5,0.5,0.6,1.3c0.2,0.8,0.1,1.3-0.1,1.5l-0.1,0.5l-0.3,0.7c-0.2,0.3-0.6,0.9-1.3,1.8
	c-0.4,0.5-0.8,0.9-1.3,1.1l-0.5,0.7l-0.5,0.5l-0.1,0.5c0.2,0.6,0.5,1,0.9,1.3c0.1,0.1,0.7,0.3,1.7,0.6c1.5,0,2.9-0.5,3.9-1.7
	c0.2,0,0.4-0.1,0.6-0.5c0.2-0.3,0.4-0.5,0.6-0.6c0.2,0,0.3,0.1,0.3,0.5l0.1,0.3c0.1,0.9,0.2,1.5,0,1.8l-1.8,1.3l-1.9,1.4l-0.8,0.3
	l-1,0.1l-1,0.2L330,87C329.4,86.7,328.6,86.3,327.7,85.6L327.7,85.6z M330.6,76.2c-0.4,0-0.8,0.3-1.2,0.9c-0.3,0.5-0.5,1.1-0.6,1.7
	l0.3,0.1c0.3-0.1,0.5-0.1,0.6-0.3l0.4-0.4c0.5-0.2,0.8-0.7,0.8-1.6L330.6,76.2z"/>
<rect x="59" y="143.5" class="st4" width="36" height="28.6"/>
<g class="st5">
	<path class="st6" d="M203,59.4c0,1.9-1.1,3.3-3,3.8c2.3,0.4,3.6,2,3.6,4.3c0,2.9-2.4,4.7-6.2,4.7h-7.5v-17h7.4
		C200.8,55.1,203,56.7,203,59.4z M200,59.9c0-1.4-1.1-2.2-2.9-2.2h-4.4v4.5h4.4C199,62.1,200,61.3,200,59.9z M200.7,67.1
		c0-1.5-1.3-2.4-3.6-2.4h-4.4v4.9h4.4C199.4,69.6,200.7,68.7,200.7,67.1z"/>
	<path class="st6" d="M218.2,66.7h-9.8c0.4,2,2,3.2,4,3.2c1.4,0,2.7-0.5,3.6-1.5l1.5,1.6c-1.3,1.4-3.1,2.2-5.3,2.2
		c-4,0-6.6-2.6-6.6-6.5c0-3.9,2.7-6.6,6.5-6.6C216.7,59.1,218.6,62,218.2,66.7z M215.8,64.7c-0.1-2.1-1.5-3.4-3.6-3.4
		c-2,0-3.5,1.3-3.8,3.4H215.8z"/>
	<path class="st6" d="M228.4,71.3c-1,0.6-2.1,0.9-3.2,0.9c-1.9,0-3.6-1.1-3.6-3.8v-6.7h-1.8v-2.1h1.8v-3.5h2.8v3.5h3.8v2.1h-3.8v6.2
		c0,1.3,0.5,1.7,1.4,1.7c0.6,0,1.2-0.2,1.9-0.6L228.4,71.3z"/>
	<path class="st6" d="M238.8,72.1v-1.6c-0.9,1.1-2.4,1.7-4.3,1.7c-2.8,0-4.5-1.7-4.5-4c0-2.4,1.8-3.9,4.9-3.9h3.9v-0.4
		c0-1.6-1-2.6-3.1-2.6c-1.2,0-2.5,0.4-3.8,1.3l-1.1-1.9c1.8-1.1,3.1-1.6,5.6-1.6c3.3,0,5.2,1.7,5.2,4.5l0,8.5H238.8z M238.7,67.6
		v-1.2h-3.5c-1.8,0-2.7,0.5-2.7,1.7c0,1.2,0.9,1.9,2.5,1.9C237.1,70,238.6,69,238.7,67.6z"/>
	<path class="st6" d="M253.4,59.2l3.6,10.2l3.5-10.2h2.8l-5,12.9h-2.9l-5-12.9H253.4z"/>
	<path class="st6" d="M276.1,66.7h-9.8c0.4,2,2,3.2,4,3.2c1.4,0,2.7-0.5,3.6-1.5l1.5,1.6c-1.3,1.4-3.1,2.2-5.3,2.2
		c-4,0-6.6-2.6-6.6-6.5c0-3.9,2.7-6.6,6.5-6.6C274.6,59.1,276.5,62,276.1,66.7z M273.7,64.7c-0.1-2.1-1.5-3.4-3.6-3.4
		c-2,0-3.5,1.3-3.8,3.4H273.7z"/>
	<path class="st6" d="M286.3,59.1v2.7c-2.6-0.1-4.2,1.4-4.5,3.6v6.7h-2.8V59.2h2.8v2.6C282.7,60,284.3,59.1,286.3,59.1z"/>
	<path class="st6" d="M292.3,61.3c-1.1,0-1.9,0.4-1.9,1.3c0,2.4,6.9,1.1,6.8,5.8c0,2.6-2.4,3.8-5,3.8c-1.9,0-3.9-0.6-5.2-1.8l1-2
		c1.1,1,2.9,1.6,4.3,1.6c1.2,0,2.1-0.4,2.1-1.4c0-2.6-6.8-1.2-6.8-5.8c0-2.6,2.3-3.7,4.8-3.7c1.6,0,3.3,0.5,4.5,1.3l-1,2.1
		C294.8,61.7,293.4,61.3,292.3,61.3z"/>
	<path class="st6" d="M303,55.5c0,0.9-0.7,1.7-1.6,1.7s-1.6-0.7-1.6-1.7c0-1,0.7-1.7,1.6-1.7S303,54.5,303,55.5z M302.8,59.2v12.9
		H300V59.2H302.8z"/>
	<path class="st6" d="M319.2,65.6c0,3.9-2.7,6.6-6.7,6.6c-4,0-6.7-2.7-6.7-6.6c0-3.9,2.7-6.5,6.7-6.5
		C316.4,59.1,319.2,61.7,319.2,65.6z M308.5,65.7c0,2.5,1.6,4.2,4,4.2c2.3,0,3.9-1.7,3.9-4.2c0-2.5-1.6-4.2-3.9-4.2
		C310.1,61.5,308.5,63.2,308.5,65.7z"/>
	<path class="st6" d="M334.5,64.1v8h-2.8v-7.3c0-1.9-1.2-3.1-3.1-3.1c-2.1,0-3.5,1.5-3.7,3.5v6.9h-2.8V59.2h2.8v2.5
		c0.9-1.8,2.6-2.6,4.8-2.6C332.7,59.1,334.5,61,334.5,64.1z"/>
</g>
<g>
	<path class="st7" d="M199,75.7c0,2-1.2,3.5-3.1,3.9c2.4,0.4,3.8,2.1,3.8,4.5c0,3-2.4,4.8-6.4,4.8h-7.8V71.3h7.7
		C196.7,71.3,199,73,199,75.7z M195.9,76.3c0-1.5-1.1-2.3-3-2.3h-4.5v4.6h4.5C194.8,78.6,195.9,77.8,195.9,76.3z M196.6,83.8
		c0-1.6-1.4-2.5-3.7-2.5h-4.5v5h4.5C195.2,86.3,196.6,85.4,196.6,83.8z"/>
	<path class="st7" d="M214.8,83.4h-10.1c0.5,2.1,2,3.4,4.2,3.4c1.5,0,2.8-0.6,3.8-1.6l1.5,1.6c-1.3,1.4-3.2,2.3-5.5,2.3
		c-4.1,0-6.9-2.7-6.9-6.8c0-4.1,2.8-6.8,6.8-6.8C213.2,75.5,215.1,78.5,214.8,83.4z M212.3,81.3c-0.1-2.2-1.5-3.5-3.7-3.5
		c-2.1,0-3.6,1.3-3.9,3.5H212.3z"/>
	<path class="st7" d="M225.4,88.1c-1.1,0.6-2.2,1-3.3,1c-2,0-3.8-1.2-3.8-3.9v-7h-1.9v-2.2h1.9v-3.7h2.9v3.7h4v2.2h-4v6.4
		c0,1.4,0.5,1.8,1.4,1.8c0.6,0,1.2-0.2,2-0.6L225.4,88.1z"/>
	<path class="st7" d="M236.1,89v-1.6c-1,1.2-2.5,1.8-4.4,1.8c-2.9,0-4.7-1.8-4.7-4.2c0-2.4,1.8-4,5.1-4h4.1v-0.4
		c0-1.7-1.1-2.7-3.2-2.7c-1.3,0-2.6,0.5-4,1.4l-1.2-2c1.9-1.1,3.2-1.7,5.8-1.7c3.5,0,5.4,1.8,5.4,4.7l0,8.8H236.1z M236.1,84.3V83
		h-3.6c-1.9,0-2.8,0.5-2.8,1.8c0,1.2,1,2,2.6,2C234.3,86.8,235.9,85.7,236.1,84.3z"/>
	<path class="st7" d="M251.3,75.6l3.7,10.6l3.7-10.6h2.9L256.5,89h-3l-5.2-13.4H251.3z"/>
	<path class="st7" d="M274.9,83.4h-10.1c0.5,2.1,2,3.4,4.2,3.4c1.5,0,2.8-0.6,3.8-1.6l1.5,1.6c-1.3,1.4-3.2,2.3-5.5,2.3
		c-4.1,0-6.9-2.7-6.9-6.8c0-4.1,2.8-6.8,6.8-6.8C273.4,75.5,275.3,78.5,274.9,83.4z M272.4,81.3c-0.1-2.2-1.5-3.5-3.7-3.5
		c-2.1,0-3.6,1.3-3.9,3.5H272.4z"/>
	<path class="st7" d="M285.5,75.5v2.8c-2.7-0.2-4.4,1.4-4.6,3.7v7h-2.9V75.6h2.9v2.7C281.8,76.4,283.4,75.5,285.5,75.5z"/>
	<path class="st7" d="M291.7,77.8c-1.1,0-2,0.4-2,1.3c0,2.5,7.1,1.1,7.1,6c0,2.7-2.4,4-5.1,4c-2,0-4.1-0.7-5.4-1.9l1-2.1
		c1.2,1,3,1.7,4.5,1.7c1.2,0,2.2-0.4,2.2-1.4c0-2.7-7.1-1.2-7-6c0-2.7,2.4-3.9,4.9-3.9c1.7,0,3.5,0.5,4.7,1.4l-1.1,2.1
		C294.3,78.2,292.8,77.8,291.7,77.8z"/>
	<path class="st7" d="M302.8,71.7c0,1-0.7,1.7-1.7,1.7s-1.7-0.7-1.7-1.7c0-1,0.7-1.7,1.7-1.7S302.8,70.7,302.8,71.7z M302.6,75.6V89
		h-2.9V75.6H302.6z"/>
	<path class="st7" d="M319.6,82.2c0,4.1-2.8,6.8-7,6.8c-4.2,0-7-2.8-7-6.8c0-4,2.8-6.8,7-6.8C316.8,75.5,319.6,78.2,319.6,82.2z
		 M308.5,82.3c0,2.6,1.7,4.4,4.1,4.4c2.4,0,4.1-1.8,4.1-4.4c0-2.6-1.7-4.4-4.1-4.4C310.2,77.9,308.5,79.7,308.5,82.3z"/>
	<path class="st7" d="M335.5,80.6V89h-2.9v-7.5c0-2-1.2-3.3-3.2-3.3c-2.2,0-3.6,1.6-3.8,3.7V89h-2.9V75.6h2.9v2.6
		c1-1.9,2.7-2.7,4.9-2.7C333.6,75.5,335.5,77.4,335.5,80.6z"/>
</g>
</svg>
